<?xml version="1.0" standalone="no"?>
<!DOCTYPE svg PUBLIC "-//W3C//DTD SVG 20010904//EN"
 "http://www.w3.org/TR/2001/REC-SVG-20010904/DTD/svg10.dtd">
<svg version="1.0" xmlns="http://www.w3.org/2000/svg"
 width="2048.000000pt" height="2048.000000pt" viewBox="0 0 2048.000000 2048.000000"
 preserveAspectRatio="xMidYMid meet">
<metadata>
Created by potrace 1.14, written by Peter Selinger 2001-2017
</metadata>
<g transform="translate(0.000000,2048.000000) scale(0.100000,-0.100000)"
fill="#000000" stroke="none">
<path d="M9987 19954 c-1 -1 -74 -4 -162 -8 -155 -5 -207 -9 -290 -22 -58 -8
-83 -11 -150 -18 -33 -4 -72 -9 -85 -12 -14 -3 -41 -7 -60 -9 -19 -2 -53 -7
-75 -11 -22 -4 -55 -7 -72 -8 -18 0 -33 -3 -33 -6 0 -3 -8 -6 -17 -7 -46 -2
-83 -8 -83 -13 0 -3 -12 -5 -27 -6 -29 0 -101 -10 -143 -18 -14 -3 -41 -8 -60
-10 -19 -3 -46 -8 -60 -11 -14 -3 -41 -8 -60 -11 -19 -2 -59 -10 -88 -15 -30
-6 -70 -13 -90 -15 -21 -2 -59 -8 -87 -14 -27 -6 -63 -13 -80 -16 -16 -3 -43
-8 -60 -11 -16 -3 -41 -7 -55 -9 -14 -1 -25 -3 -25 -4 0 -2 -23 -7 -70 -14
-23 -4 -50 -8 -62 -10 -11 -3 -38 -7 -59 -10 -22 -3 -50 -8 -64 -11 -14 -3
-41 -8 -60 -11 -19 -3 -53 -8 -75 -11 -22 -4 -75 -7 -117 -7 -43 -1 -78 -4
-78 -7 0 -3 -118 -5 -262 -5 -279 1 -283 0 -301 -47 -3 -9 -11 -17 -16 -17 -8
0 -110 -189 -111 -205 0 -3 0 -6 -1 -7 0 -2 -2 -10 -4 -18 -1 -8 -10 -40 -18
-70 -26 -90 -32 -139 -31 -265 0 -127 3 -148 29 -235 15 -50 61 -148 76 -160
3 -3 19 -25 36 -50 36 -53 108 -122 175 -168 38 -26 46 -37 42 -55 -7 -31 -6
-291 1 -357 11 -103 14 -125 29 -180 22 -86 45 -149 83 -224 18 -38 30 -72 26
-76 -4 -4 -35 -15 -68 -25 -33 -9 -78 -24 -100 -32 -22 -8 -48 -17 -58 -19
-10 -1 -57 -17 -105 -34 -216 -78 -308 -112 -327 -120 -11 -5 -54 -23 -95 -39
-41 -16 -148 -61 -237 -100 -163 -71 -173 -75 -229 -104 -17 -9 -34 -14 -38
-10 -3 3 -6 1 -6 -5 0 -9 -35 -26 -50 -24 -3 0 -9 -3 -15 -8 -5 -4 -89 -48
-185 -98 -96 -49 -199 -103 -228 -121 -29 -17 -55 -31 -57 -31 -3 0 -26 -13
-52 -28 -27 -16 -93 -55 -148 -88 -120 -71 -120 -71 -187 -112 -29 -18 -62
-38 -73 -45 -11 -7 -22 -14 -25 -17 -3 -3 -50 -34 -105 -70 -55 -35 -119 -78
-141 -95 -23 -16 -52 -37 -64 -45 -12 -8 -42 -30 -66 -47 -23 -18 -48 -33 -53
-33 -6 0 -11 -4 -11 -9 0 -4 -19 -21 -42 -37 -24 -16 -45 -31 -48 -34 -18 -18
-100 -80 -100 -76 0 3 -13 -7 -28 -22 -16 -15 -44 -39 -63 -54 -19 -14 -44
-35 -56 -45 -12 -10 -35 -28 -50 -40 -52 -41 -205 -177 -297 -263 -195 -184
-440 -444 -561 -595 -26 -33 -51 -62 -54 -65 -3 -3 -25 -30 -47 -60 -23 -30
-54 -68 -68 -85 -15 -16 -55 -67 -89 -112 -33 -46 -65 -83 -69 -83 -4 0 -8 -6
-8 -14 0 -7 -7 -20 -16 -27 -9 -8 -28 -31 -42 -53 -13 -22 -33 -49 -43 -60
-11 -11 -19 -23 -19 -27 0 -4 -6 -14 -13 -21 -7 -7 -28 -38 -47 -68 -19 -30
-38 -59 -43 -65 -21 -26 -162 -246 -244 -381 -97 -161 -126 -212 -211 -374
-30 -58 -59 -108 -65 -111 -5 -3 -8 -9 -8 -13 1 -3 -32 -76 -74 -162 -41 -86
-75 -158 -75 -161 0 -2 -13 -31 -29 -64 -17 -32 -27 -59 -24 -59 3 0 -1 -10
-9 -22 -8 -13 -22 -43 -32 -68 -10 -25 -24 -58 -31 -75 -17 -37 -78 -196 -96
-250 -8 -22 -18 -43 -22 -46 -5 -3 -8 -10 -8 -15 1 -13 -22 -88 -29 -94 -3 -3
-6 -9 -6 -15 -4 -27 -70 -220 -77 -223 -4 -2 -5 -7 -3 -11 3 -4 -6 -41 -19
-82 -13 -41 -35 -119 -50 -174 -14 -55 -33 -125 -41 -155 -8 -30 -17 -64 -19
-75 -3 -11 -8 -33 -12 -50 -4 -16 -7 -32 -8 -35 -1 -3 -4 -18 -8 -35 -4 -16
-9 -39 -11 -50 -3 -11 -10 -42 -16 -70 -6 -27 -13 -61 -15 -75 -2 -14 -7 -36
-10 -50 -3 -14 -12 -63 -20 -110 -8 -47 -17 -96 -20 -110 -3 -14 -8 -45 -11
-70 -3 -25 -10 -65 -14 -90 -5 -24 -6 -48 -4 -52 3 -5 2 -8 -3 -8 -4 0 -9 -17
-9 -38 -2 -36 -11 -117 -14 -117 0 0 -3 -25 -6 -55 -2 -30 -6 -73 -8 -95 -4
-39 -13 -132 -21 -230 -24 -290 -24 -977 0 -1200 2 -22 7 -67 9 -100 14 -167
17 -192 22 -215 3 -14 8 -47 10 -75 3 -27 7 -63 9 -80 2 -16 6 -50 10 -75 3
-25 11 -72 17 -105 12 -69 15 -85 23 -140 7 -48 6 -45 40 -210 15 -71 28 -138
30 -148 3 -10 6 -26 9 -35 3 -9 8 -31 11 -49 3 -18 9 -43 15 -57 5 -15 8 -26
6 -26 -2 0 4 -26 13 -58 10 -32 17 -65 15 -75 -1 -9 1 -17 5 -17 4 0 8 -6 9
-12 0 -7 5 -29 11 -48 9 -30 15 -54 36 -130 16 -62 102 -334 115 -365 15 -38
72 -196 74 -208 4 -15 14 -43 31 -82 7 -16 21 -50 30 -75 76 -205 336 -760
443 -945 9 -16 45 -79 80 -140 141 -246 318 -520 486 -750 28 -38 54 -72 58
-73 5 -2 8 -8 8 -14 0 -8 74 -105 145 -191 8 -9 15 -19 15 -22 0 -3 8 -13 18
-23 9 -10 33 -38 52 -62 19 -24 43 -52 52 -62 10 -10 16 -18 14 -18 -3 0 8
-13 22 -28 47 -49 102 -112 97 -112 -2 0 13 -17 33 -38 83 -85 172 -186 172
-194 0 -5 5 -6 10 -3 6 3 10 2 10 -3 0 -18 412 -422 431 -422 5 0 9 -7 9 -15
0 -8 3 -15 8 -15 4 0 28 -19 54 -42 26 -24 65 -59 89 -77 23 -19 47 -40 53
-45 6 -6 38 -33 71 -61 33 -27 69 -57 80 -67 11 -10 65 -53 120 -95 55 -43
102 -81 103 -85 2 -4 10 -8 18 -8 8 0 14 -4 14 -10 0 -5 7 -10 16 -10 8 0 12
-4 9 -10 -3 -5 0 -10 7 -10 12 0 46 -24 91 -64 9 -9 19 -16 22 -16 9 0 160
-104 163 -112 2 -5 9 -8 16 -8 7 0 21 -8 32 -18 21 -19 70 -51 81 -54 5 -1 13
-6 20 -12 31 -27 43 -36 48 -36 4 0 25 -13 48 -28 23 -16 60 -40 82 -54 22
-13 59 -37 82 -51 24 -15 45 -27 48 -27 3 0 24 -12 48 -27 23 -15 62 -38 87
-52 25 -13 58 -34 73 -47 16 -13 34 -24 41 -24 16 0 149 -70 157 -82 3 -5 8
-8 10 -7 2 2 78 -34 169 -78 272 -134 420 -200 660 -292 74 -29 144 -56 155
-61 66 -29 436 -152 495 -165 19 -4 41 -11 50 -15 12 -7 77 -27 115 -36 6 -1
89 -23 185 -49 96 -25 189 -48 205 -49 17 -2 37 -6 45 -10 14 -5 30 -9 98 -21
15 -3 38 -8 52 -12 37 -9 52 -12 85 -18 48 -7 88 -15 115 -21 14 -3 41 -8 60
-10 19 -3 43 -7 52 -10 30 -9 95 -19 188 -30 47 -5 85 -11 85 -14 0 -1 14 -3
30 -4 28 -3 93 -10 191 -22 58 -6 129 -13 209 -19 133 -10 177 -16 218 -30 54
-18 125 -36 157 -41 14 -2 36 -6 50 -9 57 -15 306 -14 393 1 102 16 345 73
366 84 9 5 24 -1 40 -17 76 -74 235 -152 341 -167 25 -4 63 -10 85 -13 53 -7
138 -10 149 -4 5 2 32 5 60 6 147 8 351 62 488 130 l67 34 63 -26 c138 -56
259 -73 414 -60 23 2 46 7 53 11 6 4 11 5 11 3 0 -4 97 18 170 37 93 25 243
97 356 171 85 55 85 55 118 40 66 -31 155 -45 254 -40 110 6 114 7 222 40 6 2
58 22 85 34 79 32 199 97 240 128 6 5 23 16 38 26 16 10 36 26 46 35 82 78 73
74 173 77 97 4 123 7 134 17 3 4 12 4 19 2 7 -3 16 -1 20 5 3 6 13 11 22 11 9
0 58 20 109 44 51 24 95 42 98 40 3 -2 4 -1 2 2 -3 4 27 27 67 53 40 26 80 55
89 64 9 9 19 17 22 17 2 0 48 43 102 95 53 52 100 95 104 95 4 0 10 9 13 21 4
13 10 18 18 13 7 -4 10 -3 5 4 -9 16 1 19 84 27 93 10 101 11 120 18 8 2 50
17 93 32 151 53 343 186 527 365 102 100 318 370 313 391 -3 8 43 55 85 89 18
14 42 34 55 45 13 11 47 40 77 65 30 25 66 57 82 72 15 15 28 26 28 23 0 -2
17 13 39 33 21 20 78 73 127 117 168 152 416 393 455 444 10 13 19 20 19 15 0
-5 9 5 20 21 11 17 20 26 20 21 0 -6 10 3 23 20 21 28 69 80 188 205 31 33 53
59 50 59 -3 0 -1 4 4 8 6 4 42 43 80 87 92 107 106 123 133 152 12 13 22 28
22 33 0 6 4 10 9 10 5 0 13 9 16 21 4 11 9 18 13 15 3 -3 15 8 26 26 48 73 56
83 56 74 0 -5 11 8 25 28 25 36 36 51 65 85 8 10 26 33 40 52 13 19 28 39 32
44 5 6 32 42 60 80 28 39 56 73 62 77 6 4 8 8 4 8 -7 0 115 177 146 213 9 9
14 17 11 17 -3 0 14 28 38 63 24 34 74 112 112 172 37 61 73 113 79 117 6 4 7
8 3 8 -5 0 0 12 11 27 25 38 129 217 191 333 63 116 292 580 296 600 1 3 9 23
19 45 29 65 157 379 161 395 3 8 25 71 50 140 25 69 45 128 45 132 0 4 5 19
12 35 6 15 12 30 13 33 1 3 7 25 15 50 7 25 15 50 16 55 59 193 144 509 159
590 2 11 6 31 9 45 8 37 11 52 40 200 41 210 45 232 51 285 3 28 7 61 10 75
10 56 14 85 31 225 17 152 31 356 39 575 2 63 4 117 5 120 1 3 1 75 1 160 0
224 -10 481 -26 650 -2 25 -6 74 -9 110 -11 127 -22 215 -26 215 -1 0 -11 94
-11 115 0 8 -3 22 -6 30 -3 8 -7 33 -9 55 -10 86 -12 100 -14 100 -1 0 -3 9
-5 20 -1 11 -5 37 -9 58 -3 20 -8 52 -11 70 -3 17 -7 43 -10 57 -12 57 -27
146 -28 163 -1 9 -4 17 -7 17 -3 0 -6 12 -7 28 -1 15 -7 47 -13 72 -14 55 -20
78 -26 110 -3 14 -9 39 -14 55 -5 17 -11 41 -14 55 -2 14 -14 59 -26 99 -21
71 -25 88 -36 140 -3 13 -9 31 -13 40 -5 9 -9 19 -10 24 -1 4 -1 8 -2 10 0 1
-2 9 -4 17 -33 147 -233 696 -358 985 -85 196 -238 514 -317 660 -15 28 -45
84 -66 125 -21 41 -42 77 -45 80 -3 3 -12 20 -20 38 -8 17 -18 32 -22 32 -5 0
-5 5 -2 10 3 6 2 10 -3 10 -5 0 -19 23 -32 50 -13 28 -27 50 -32 50 -5 0 -6 5
-3 10 3 6 2 10 -2 10 -5 0 -19 19 -31 43 -23 45 -44 79 -52 87 -3 3 -12 18
-20 34 -29 56 -35 66 -42 66 -5 0 -8 7 -8 15 0 8 -4 15 -10 15 -5 0 -10 4 -10
9 0 5 -27 50 -60 100 -33 50 -60 95 -60 100 0 5 -4 11 -8 13 -4 2 -41 53 -81
113 -41 61 -82 119 -92 131 -11 11 -19 25 -19 31 0 6 -3 13 -7 15 -13 5 -73
86 -73 97 0 6 -4 11 -10 11 -5 0 -10 7 -10 15 0 8 -3 15 -7 15 -5 0 -19 17
-33 38 -14 20 -31 41 -38 45 -7 5 -10 12 -7 17 3 4 -1 10 -8 13 -7 3 -26 24
-42 48 -17 24 -33 46 -36 49 -3 3 -29 36 -59 74 -67 88 -80 103 -108 132 -13
13 -20 24 -17 24 3 0 -4 11 -17 24 -13 13 -33 37 -45 52 -12 16 -31 39 -42 51
-12 12 -21 27 -21 33 0 5 -7 10 -15 10 -8 0 -15 4 -15 8 0 8 -11 22 -63 82
-13 14 -30 36 -40 50 -9 13 -17 21 -17 16 0 -5 -13 9 -29 30 -15 21 -49 60
-75 85 -25 26 -46 49 -46 51 0 6 -132 146 -282 301 -76 78 -138 145 -138 149
0 4 -4 8 -8 8 -5 0 -56 46 -114 103 -88 86 -187 179 -363 342 -18 17 -55 49
-81 71 -27 23 -61 52 -75 65 -14 13 -52 46 -85 73 -32 28 -66 57 -75 65 -9 9
-34 30 -55 48 -22 17 -48 40 -59 50 -11 10 -46 38 -78 62 -31 24 -57 47 -57
52 0 5 -4 9 -10 9 -9 0 -24 11 -76 55 -13 11 -42 33 -64 49 -22 17 -40 33 -40
38 0 4 -5 8 -12 8 -6 0 -18 7 -27 15 -51 46 -61 55 -66 55 -5 0 -39 26 -67 53
-10 9 -18 15 -18 12 0 -5 -29 18 -55 43 -8 6 -17 12 -22 12 -5 0 -15 9 -23 20
-8 11 -20 20 -28 20 -7 0 -15 7 -18 15 -4 8 -10 12 -15 9 -5 -3 -9 0 -9 5 0 6
-4 11 -10 11 -9 0 -35 19 -65 48 -8 6 -18 12 -24 12 -6 0 -11 5 -11 10 0 6 -4
10 -10 10 -5 0 -18 7 -27 15 -10 8 -49 37 -88 64 -38 28 -74 54 -80 58 -5 5
-27 19 -47 32 -21 12 -38 27 -38 32 0 5 -3 8 -7 7 -11 -3 -73 35 -73 44 0 4
-5 8 -10 8 -12 0 -73 41 -78 53 -2 4 -9 7 -16 7 -7 0 -21 9 -31 20 -10 11 -24
20 -32 20 -7 0 -13 5 -13 10 0 6 -6 10 -13 10 -7 0 -23 9 -35 20 -12 11 -26
20 -32 20 -5 0 -10 5 -10 10 0 6 -6 10 -14 10 -8 0 -21 6 -28 13 -7 7 -42 31
-78 52 -36 22 -66 43 -68 48 -2 4 -10 7 -17 7 -8 0 -19 8 -24 18 -6 9 -11 14
-11 10 0 -4 -21 6 -47 22 -26 17 -50 30 -54 30 -4 0 -34 17 -66 38 -108 72
-258 158 -333 193 -41 18 -86 44 -100 56 -14 13 -28 23 -32 23 -3 0 -13 6 -20
13 -7 7 -26 21 -43 31 -16 11 -34 23 -40 28 -13 11 -65 44 -145 92 -36 22 -67
42 -70 45 -5 6 -123 77 -225 137 -27 16 -59 34 -70 41 -21 13 -374 188 -435
215 -107 49 -157 70 -275 118 -71 29 -139 56 -150 61 -11 5 -42 17 -70 27 -27
10 -59 23 -70 27 -11 5 -22 9 -25 10 -3 1 -39 12 -80 24 -41 13 -79 24 -85 26
-5 1 -30 7 -55 14 -25 7 -56 15 -69 18 -13 2 -32 8 -41 13 -10 5 -20 7 -23 4
-2 -3 -31 2 -63 10 -72 18 -218 39 -369 52 -27 2 -72 6 -100 9 -96 10 -452 24
-458 19z m-1909 -455 c123 -38 236 -67 292 -73 30 -3 75 -8 100 -11 101 -11
402 -6 550 10 59 6 120 11 270 23 52 4 203 7 335 7 217 0 249 -3 330 -23 241
-62 473 -139 615 -205 90 -42 274 -105 355 -122 133 -28 343 -37 464 -21 61 9
64 9 176 32 44 9 87 18 95 19 8 2 16 4 18 4 1 1 5 2 10 3 29 6 189 50 243 66
36 11 98 25 137 32 l71 12 78 -43 c43 -23 85 -47 93 -53 15 -11 27 -18 109
-64 25 -14 66 -38 91 -54 l45 -28 -60 7 c-111 12 -302 6 -405 -12 -59 -11 -78
-14 -130 -25 -30 -6 -66 -13 -80 -15 -14 -1 -52 -10 -85 -19 -33 -8 -71 -17
-85 -20 -14 -3 -43 -10 -65 -15 -22 -6 -55 -13 -74 -16 -19 -3 -37 -8 -41 -10
-4 -2 -29 -7 -56 -10 -27 -3 -71 -9 -99 -13 -54 -9 -205 -8 -295 2 -46 5 -67
8 -120 21 -43 10 -120 26 -122 25 -2 -1 -16 4 -33 10 -16 7 -39 14 -50 16 -40
8 -130 38 -142 47 -7 5 -13 7 -13 4 0 -4 -21 3 -47 14 -229 100 -469 187 -558
203 -11 2 -38 9 -60 14 -22 6 -58 13 -79 17 -21 3 -48 8 -60 11 -53 13 -284
27 -456 28 -126 0 -181 -4 -300 -23 -98 -15 -148 -21 -230 -26 -97 -6 -418 -6
-450 -1 -14 3 -43 7 -65 10 -50 5 -173 31 -245 51 -30 9 -63 18 -72 20 -33 7
-173 46 -188 52 -8 3 -25 7 -37 9 -13 1 -37 7 -55 13 -64 20 -144 40 -181 47
-20 3 -40 10 -43 15 -3 5 -17 9 -31 9 -15 0 -24 2 -21 5 3 3 45 8 94 10 156 8
253 15 266 20 15 5 78 15 127 20 18 3 35 6 37 7 11 12 75 5 132 -13z m-878
-134 c30 -10 69 -22 85 -28 17 -7 35 -12 42 -13 13 -2 78 -22 103 -31 8 -3 22
-7 30 -9 8 -1 49 -12 90 -23 41 -11 110 -29 152 -39 42 -11 81 -22 85 -25 5
-3 20 -8 34 -10 13 -3 69 -17 124 -32 98 -26 113 -30 158 -40 162 -37 240 -47
383 -49 l102 -1 5 -51 c3 -29 13 -66 21 -83 23 -43 106 -123 163 -156 26 -16
51 -32 54 -37 3 -6 9 -10 12 -9 4 0 45 -18 92 -40 47 -21 91 -39 98 -39 7 0
18 -5 25 -12 7 -7 12 -9 12 -5 0 4 16 1 35 -7 19 -8 35 -13 35 -11 0 2 14 0
30 -5 76 -22 272 -31 380 -17 52 6 69 9 123 23 12 3 32 7 45 10 34 7 135 45
150 57 6 5 12 6 12 1 0 -5 4 -4 8 1 4 6 25 19 47 30 44 22 195 166 195 187 0
7 9 24 19 36 16 22 19 23 34 8 8 -9 20 -16 26 -16 6 0 11 -4 11 -9 0 -5 10
-13 23 -17 12 -4 24 -10 27 -13 18 -22 264 -151 410 -214 50 -22 193 -79 205
-82 6 -1 17 -4 25 -7 14 -5 163 -50 225 -68 53 -16 239 -61 270 -65 17 -3 39
-7 50 -10 22 -5 139 -31 176 -39 13 -3 56 -12 94 -21 39 -9 80 -18 93 -21 90
-18 238 -82 314 -135 14 -11 31 -19 37 -19 6 0 11 -3 11 -8 0 -4 20 -18 45
-31 25 -13 45 -28 45 -32 0 -5 3 -8 8 -7 12 3 62 -25 62 -34 0 -5 4 -7 9 -4 4
3 16 -3 26 -14 10 -11 22 -17 26 -14 5 3 9 1 9 -4 0 -5 12 -15 28 -23 15 -8
36 -22 46 -31 11 -10 26 -18 33 -18 7 0 13 -4 13 -10 0 -5 7 -10 15 -10 7 0
19 -8 24 -17 6 -10 11 -14 11 -10 0 4 43 -22 96 -58 52 -36 100 -65 105 -65 5
0 9 -4 9 -8 0 -5 12 -15 28 -23 27 -14 42 -24 67 -46 7 -7 18 -13 24 -13 6 0
11 -4 11 -9 0 -5 8 -11 18 -15 9 -3 49 -28 87 -56 39 -28 91 -65 118 -83 26
-17 47 -35 47 -39 0 -5 7 -8 15 -8 9 0 18 -7 21 -15 4 -8 10 -15 15 -15 8 0
112 -72 129 -90 3 -3 28 -21 55 -40 28 -19 55 -39 61 -45 6 -5 23 -19 38 -30
44 -31 130 -98 144 -112 7 -7 17 -13 20 -13 4 0 19 -10 32 -22 14 -13 46 -38
70 -57 25 -19 52 -40 60 -48 8 -7 85 -70 170 -140 85 -70 160 -132 166 -138 6
-5 32 -28 59 -50 26 -22 60 -51 75 -65 15 -14 58 -52 95 -85 38 -33 80 -71 94
-83 178 -164 256 -238 440 -422 187 -186 335 -340 450 -470 78 -87 99 -111
146 -166 28 -32 58 -66 68 -76 9 -10 17 -20 17 -23 0 -3 10 -16 23 -28 12 -12
34 -38 49 -57 14 -19 36 -46 48 -60 12 -14 32 -38 45 -55 13 -16 55 -70 94
-120 39 -49 74 -94 79 -100 4 -5 19 -26 32 -45 14 -19 31 -39 38 -43 6 -4 12
-12 12 -17 0 -11 88 -131 105 -142 5 -4 6 -8 2 -8 -4 0 -2 -7 5 -15 7 -9 18
-21 23 -28 6 -7 28 -39 50 -72 22 -33 46 -66 53 -73 6 -7 12 -19 12 -27 0 -7
4 -15 9 -17 14 -5 298 -459 292 -467 -1 -2 2 -7 7 -10 5 -3 24 -33 42 -66 18
-33 50 -90 71 -127 21 -38 35 -68 31 -68 -4 0 -2 -4 4 -8 10 -6 183 -343 184
-357 0 -3 11 -28 25 -57 14 -28 25 -57 25 -64 0 -7 3 -14 8 -16 6 -3 50 -99
56 -123 1 -5 12 -31 24 -57 12 -26 22 -50 22 -53 0 -3 9 -27 21 -52 11 -25 22
-53 24 -62 2 -9 22 -63 45 -121 22 -58 42 -112 44 -120 2 -8 6 -23 10 -32 4
-9 8 -22 10 -30 1 -7 4 -17 7 -23 4 -5 10 -23 14 -40 5 -16 9 -32 10 -35 1 -3
7 -25 14 -50 7 -25 17 -54 21 -65 7 -18 22 -70 61 -215 7 -25 13 -49 14 -55 2
-5 16 -71 33 -145 33 -145 39 -174 48 -233 8 -49 12 -72 14 -72 1 0 3 -11 5
-25 4 -35 16 -121 21 -145 17 -89 40 -320 51 -525 8 -140 8 -512 0 -625 -4
-49 -9 -126 -12 -170 -3 -44 -7 -91 -10 -105 -5 -29 -18 -147 -19 -172 0 -10
-3 -18 -6 -18 -3 0 -5 -12 -6 -27 0 -27 -9 -93 -19 -143 -3 -14 -14 -74 -25
-135 -12 -60 -25 -123 -30 -140 -5 -16 -12 -43 -15 -60 -2 -16 -13 -60 -24
-97 -11 -38 -18 -68 -16 -68 2 0 -3 -16 -11 -35 -8 -19 -14 -36 -13 -37 3 -11
-27 -98 -34 -98 -4 0 -6 -4 -2 -9 4 -8 -12 -71 -32 -121 -4 -8 -7 -17 -8 -20
-12 -48 -61 -177 -69 -182 -6 -4 -8 -8 -4 -8 9 0 -22 -90 -31 -90 -4 0 -7 -8
-8 -18 -1 -10 -16 -52 -34 -93 -17 -41 -41 -95 -52 -121 -11 -27 -24 -48 -29
-48 -4 0 -7 -3 -6 -7 4 -15 -24 -83 -33 -83 -6 0 -8 -4 -4 -9 3 -5 1 -12 -5
-16 -5 -3 -10 -15 -10 -26 0 -10 -3 -19 -7 -19 -5 0 -21 -29 -37 -65 -16 -36
-34 -65 -38 -65 -5 0 -6 -4 -3 -10 3 -5 1 -10 -5 -10 -6 0 -9 -4 -5 -9 3 -5
-1 -16 -9 -24 -8 -8 -18 -26 -21 -40 -4 -14 -15 -33 -26 -43 -10 -9 -19 -25
-19 -36 0 -10 -5 -18 -11 -18 -5 0 -7 -4 -4 -10 3 -5 1 -10 -4 -10 -6 0 -11
-4 -11 -10 0 -5 -10 -25 -22 -44 -59 -88 -102 -162 -100 -168 1 -5 -3 -8 -8
-8 -6 0 -10 -5 -10 -10 0 -12 -41 -73 -52 -78 -5 -2 -8 -10 -8 -18 0 -8 -5
-14 -11 -14 -5 0 -8 -4 -4 -9 3 -6 -1 -13 -8 -18 -7 -4 -24 -26 -37 -48 -14
-22 -28 -44 -32 -50 -7 -9 -49 -66 -136 -188 -15 -21 -36 -48 -47 -61 -11 -13
-29 -36 -40 -51 -11 -16 -25 -33 -30 -39 -6 -6 -26 -31 -45 -56 -19 -25 -40
-50 -45 -56 -6 -6 -27 -31 -46 -54 -18 -24 -49 -58 -66 -76 -18 -18 -33 -36
-33 -38 0 -3 -10 -15 -22 -28 -13 -13 -42 -45 -66 -73 -42 -49 -39 -30 6 32
12 17 22 36 22 41 0 6 4 12 8 14 13 5 120 176 189 301 20 37 41 67 46 67 4 0
6 4 2 9 -3 5 0 15 7 23 7 7 31 49 53 93 22 44 45 87 52 95 6 8 12 18 13 22 0
4 19 46 40 93 22 46 40 89 40 95 0 5 3 10 8 10 4 0 12 15 18 33 6 17 38 97 71
177 33 80 79 201 103 270 23 69 45 132 48 140 8 22 8 22 16 55 4 17 12 41 18
55 6 14 12 34 13 45 2 11 13 54 25 95 11 41 23 86 26 100 4 21 8 42 19 90 11
50 15 69 19 90 2 14 11 63 20 110 17 89 24 136 32 210 15 135 29 176 160 458
19 40 34 75 34 78 0 3 7 20 15 37 17 37 56 137 59 152 10 43 30 102 37 111 5
6 7 13 4 15 -2 3 0 22 5 44 20 87 25 136 25 275 0 162 -22 270 -75 365 l-28
50 26 75 c23 65 26 92 26 205 1 72 -2 151 -6 176 -12 81 -55 229 -88 304 -5
11 -21 46 -35 79 l-25 58 21 47 c12 25 23 53 24 61 2 8 6 26 10 40 11 39 12
161 1 205 -16 73 -47 169 -67 212 -10 24 -19 47 -19 52 0 5 -3 11 -7 13 -5 2
-19 26 -33 53 -13 28 -37 69 -52 92 -15 23 -28 46 -28 51 0 6 -3 12 -8 14 -4
2 -34 39 -67 83 -33 44 -67 89 -77 99 -10 11 -16 27 -13 35 2 9 6 28 9 43 3
15 7 32 11 38 3 5 1 10 -5 10 -7 0 -8 6 -2 18 13 26 7 137 -13 222 -9 42 -23
77 -57 149 -23 47 -41 89 -40 94 1 4 -2 7 -7 7 -5 0 -12 8 -16 19 -3 10 -17
31 -30 47 -14 16 -25 34 -25 41 0 6 -3 13 -7 15 -5 2 -21 21 -38 43 -38 51
-61 79 -105 125 -126 133 -121 125 -111 170 5 23 7 74 5 113 -7 97 -8 109 -22
133 -6 12 -9 23 -7 26 7 6 -48 109 -96 179 -45 67 -232 258 -279 285 -16 10
-30 22 -30 26 0 4 -5 8 -11 8 -6 0 -30 14 -54 30 -24 17 -48 30 -54 30 -6 0
-11 4 -11 8 0 5 -16 16 -35 25 -31 15 -35 21 -34 49 1 18 -2 49 -6 68 -4 19
-8 43 -9 52 -3 26 -73 160 -101 192 -14 16 -25 32 -25 36 0 19 -177 184 -275
257 -74 54 -98 68 -235 140 -109 58 -103 52 -114 113 -1 8 -6 23 -10 32 -4 9
-9 22 -10 30 -13 74 -141 232 -251 310 -158 112 -391 230 -497 252 -13 3 -34
7 -47 10 -24 6 -50 32 -51 53 0 17 -31 85 -49 106 -8 9 -11 17 -8 17 24 0
-136 158 -208 206 -124 83 -336 164 -490 189 -22 4 -47 8 -55 10 -8 2 -44 7
-80 11 -36 4 -68 9 -72 10 -5 1 -16 2 -25 3 -10 1 -26 19 -37 41 -20 42 -133
161 -178 188 -16 9 -28 20 -28 24 0 4 -7 8 -15 8 -8 0 -15 5 -15 11 0 5 -4 7
-10 4 -5 -3 -10 -2 -10 2 0 5 -19 17 -42 28 -24 10 -67 28 -96 41 -29 13 -56
23 -60 24 -16 2 -58 12 -72 17 -43 16 -186 33 -299 36 -82 2 -101 5 -101 17
-2 51 -11 156 -15 174 -43 162 -136 332 -213 390 -43 33 -118 -4 -116 -56 1
-34 23 -88 36 -88 5 0 6 -4 3 -10 -3 -5 -2 -10 2 -10 12 0 39 -63 57 -136 16
-61 16 -205 1 -284 -16 -82 -69 -209 -112 -266 -13 -17 -23 -36 -23 -43 0 -7
-4 -9 -10 -6 -5 3 -10 1 -10 -4 0 -21 -70 -88 -165 -159 -28 -20 -107 -53
-154 -63 -137 -29 -263 16 -345 124 -30 39 -31 51 -12 89 8 14 19 43 26 65 7
21 16 43 21 49 5 6 7 13 4 15 -2 3 0 22 6 42 18 65 21 99 20 232 0 149 -5 200
-27 293 -8 37 -18 77 -20 90 -3 13 -16 51 -29 85 -13 34 -26 69 -27 77 -2 8
-6 17 -9 20 -4 3 -22 34 -40 70 -18 36 -35 67 -38 70 -3 3 -19 23 -34 46 -15
22 -36 50 -48 62 -11 12 -17 22 -15 22 11 0 -154 158 -204 196 -27 21 -50 42
-50 46 0 4 -5 8 -12 8 -6 0 -22 9 -34 21 -23 21 -94 43 -94 29 0 -5 -9 -11
-19 -15 -26 -8 -36 -57 -19 -95 7 -17 17 -30 22 -30 17 0 151 -113 232 -196
88 -90 155 -184 202 -282 29 -59 68 -166 76 -208 3 -10 9 -40 15 -65 25 -110
30 -308 11 -408 -22 -112 -72 -226 -153 -346 -41 -61 -248 -275 -266 -275 -5
0 -16 -6 -23 -13 -17 -17 -105 -77 -113 -77 -3 0 -23 -11 -45 -25 -22 -14 -40
-23 -40 -20 0 3 -10 0 -22 -7 -13 -7 -25 -13 -28 -13 -3 0 -15 -6 -27 -13 -12
-6 -30 -13 -40 -15 -10 -1 -22 -5 -28 -8 -5 -4 -23 -10 -40 -14 -16 -4 -37 -9
-45 -11 -72 -18 -108 -26 -125 -29 -11 -2 -29 -5 -40 -8 -11 -3 -40 -8 -65
-12 -25 -4 -54 -9 -65 -12 -11 -2 -33 -6 -50 -8 -16 -3 -41 -7 -55 -10 -14 -3
-36 -7 -50 -10 -40 -6 -93 -15 -123 -21 -15 -3 -51 -8 -80 -10 -28 -2 -113
-13 -187 -24 -74 -11 -153 -22 -175 -25 -75 -9 -121 -17 -190 -31 -20 -4 -27
-3 -20 4 14 13 166 65 188 64 9 0 17 3 17 8 0 7 12 11 63 25 4 2 10 4 15 5 4
1 10 2 15 1 4 0 7 4 7 9 0 6 7 10 14 10 22 0 292 138 371 190 69 45 107 74
152 117 13 12 23 20 23 18 0 -3 114 114 150 155 27 30 60 79 60 89 0 5 3 11 8
13 21 9 105 225 121 308 3 19 6 105 5 190 0 115 -5 167 -16 200 -22 62 -51
124 -60 128 -5 2 -8 8 -8 13 0 16 -72 119 -83 119 -6 0 -7 3 -4 6 6 6 -68 83
-141 146 -17 15 -70 53 -119 84 -48 31 -99 64 -113 73 -45 29 -205 103 -213
99 -1 -1 -13 5 -27 12 -14 8 -29 15 -35 17 -5 1 -71 23 -145 49 -74 25 -142
48 -150 50 -84 20 -107 27 -120 32 -19 7 -17 6 -65 16 -22 4 -44 11 -50 14 -5
4 -14 7 -20 7 -5 0 -37 9 -70 20 -33 10 -62 19 -65 20 -3 1 -12 4 -20 8 -8 3
-35 12 -60 21 -66 21 -199 71 -245 91 -22 10 -45 19 -52 20 -6 2 -72 33 -146
69 -125 62 -257 147 -283 185 -7 9 -26 32 -43 51 -17 19 -31 40 -31 47 0 6 -4
13 -9 15 -22 8 -49 123 -45 195 5 103 -14 122 -108 112 -9 -1 -15 -6 -12 -11
3 -4 1 -8 -4 -8 -5 0 -15 -14 -22 -31 -16 -38 -7 -182 14 -233 8 -20 16 -40
17 -44 0 -4 10 -24 20 -44 l19 -37 -28 5 c-31 6 -107 41 -136 63 -41 31 -167
163 -161 169 3 3 -1 12 -9 21 -16 17 -61 144 -72 201 -7 39 -7 212 0 250 3 14
13 57 22 96 19 81 3 76 124 39z m2345 -249 c72 -4 146 -9 165 -13 40 -7 67
-11 93 -12 15 -1 16 -3 5 -14 -54 -52 -217 -103 -315 -98 -18 1 -43 2 -55 2
-32 2 -119 29 -145 46 -33 22 -35 41 -5 71 25 25 35 29 78 26 27 -1 108 -5
179 -8z m4195 -837 c0 -5 6 -9 13 -10 6 0 66 -37 131 -82 l120 -82 26 -100
c39 -142 55 -187 110 -300 77 -161 175 -278 365 -435 104 -86 167 -140 225
-189 90 -78 181 -180 246 -278 66 -98 204 -253 225 -253 4 0 14 -6 21 -13 15
-14 95 -67 102 -67 2 0 34 -18 70 -40 36 -22 68 -40 71 -40 10 0 303 -198 338
-228 89 -76 154 -152 230 -268 79 -123 157 -212 229 -267 72 -55 309 -169 458
-222 254 -89 359 -139 413 -196 20 -22 37 -42 37 -44 0 -8 124 -170 133 -173
4 -2 7 -10 7 -18 0 -8 5 -14 10 -14 6 0 10 -7 10 -15 0 -8 5 -15 10 -15 6 0
10 -7 10 -15 0 -8 5 -15 10 -15 6 0 10 -6 10 -14 0 -8 7 -17 16 -20 9 -4 14
-9 11 -12 -3 -4 -33 10 -66 30 -33 21 -63 37 -66 36 -3 0 -13 6 -21 15 -9 8
-19 13 -24 10 -4 -3 -13 2 -20 10 -7 8 -21 15 -31 15 -11 0 -19 5 -19 12 0 6
-3 9 -6 5 -4 -3 -19 0 -35 9 -16 8 -31 14 -34 14 -8 -1 -209 103 -215 110 -15
21 -157 67 -254 84 -72 13 -142 30 -153 38 -6 5 -24 11 -39 14 -15 3 -48 15
-73 26 -25 12 -48 22 -51 23 -16 2 -70 31 -70 37 0 5 -5 8 -11 8 -15 0 -86 56
-132 105 -21 22 -72 92 -114 155 -131 198 -261 351 -393 463 -55 46 -278 157
-317 157 -7 0 -13 4 -13 8 0 4 -16 14 -35 21 -19 7 -35 17 -35 22 0 5 -5 9
-12 9 -17 0 -117 78 -172 135 -57 59 -105 121 -208 266 -72 101 -204 244 -276
299 -18 14 -45 35 -60 48 -15 12 -35 25 -44 28 -10 3 -18 10 -18 15 0 5 -7 9
-15 9 -8 0 -15 5 -15 10 0 6 -5 10 -10 10 -9 0 -126 86 -156 114 -6 6 -30 27
-53 46 -59 50 -155 140 -148 140 3 0 -6 12 -20 28 -14 15 -40 57 -58 94 -45
91 -72 177 -90 283 -7 43 -13 74 -19 93 -3 9 -8 37 -11 62 -3 25 -8 52 -10 60
-2 8 -6 31 -9 50 -5 30 -35 148 -53 203 -4 13 -1 16 11 11 9 -3 16 -10 16 -15z
m-6321 -21 c49 -2 49 -2 43 -33 -3 -16 -6 -131 -6 -255 -1 -182 2 -239 17
-300 9 -41 16 -77 15 -80 -1 -3 4 -15 11 -28 10 -20 9 -23 -11 -31 -27 -11
-37 -1 -79 81 -51 101 -95 249 -103 353 -2 33 -5 62 -6 65 -2 3 -1 10 0 15 1
6 2 60 1 122 l0 111 34 -9 c19 -6 57 -11 84 -11z m211 -38 c0 -5 5 -10 10 -10
6 0 21 -11 34 -25 13 -14 29 -25 35 -25 7 0 10 -3 8 -7 -16 -26 -24 -319 -12
-398 4 -22 8 -51 10 -65 2 -14 6 -41 10 -61 6 -32 4 -37 -17 -43 -50 -13 -55
-9 -73 62 -24 95 -29 149 -29 297 1 176 7 285 16 285 5 0 8 -4 8 -10z m335
-75 c22 -10 42 -19 45 -19 3 -1 15 -7 28 -14 12 -7 22 -10 22 -7 0 3 9 1 20
-5 25 -13 25 -17 0 -74 -12 -25 -21 -49 -21 -53 -1 -5 -5 -15 -10 -25 -13 -23
-57 -204 -65 -263 -3 -27 -9 -71 -13 -96 -4 -26 -7 -81 -7 -123 1 -42 -1 -76
-4 -76 -11 0 -76 222 -96 325 -10 50 -11 288 -2 375 4 36 7 73 7 83 1 16 4 16
29 3 15 -7 45 -22 67 -31z m245 -307 c0 -5 4 -7 9 -4 5 3 11 -1 15 -9 3 -8 11
-15 19 -15 7 0 22 -8 33 -18 10 -10 36 -28 57 -41 21 -13 35 -27 30 -31 -4 -5
-30 -11 -58 -15 -27 -3 -59 -8 -70 -11 -45 -10 -95 -12 -100 -4 -4 7 17 120
30 157 5 14 35 6 35 -9z m1134 -228 c60 -2 97 -11 116 -30 3 -3 28 -20 55 -39
28 -19 67 -51 87 -72 20 -20 40 -34 43 -31 3 3 5 1 5 -4 0 -5 14 -25 30 -44
66 -76 68 -82 28 -74 -18 3 -47 7 -64 9 -18 2 -53 6 -78 9 -92 12 -133 16
-221 22 -111 9 -559 8 -675 0 -106 -8 -185 -15 -185 -16 0 -1 -25 -3 -55 -6
-76 -6 -125 -12 -125 -14 0 -1 -11 -3 -25 -5 -14 -2 -45 -5 -70 -8 -25 -3 -53
-9 -62 -12 -12 -5 -18 -2 -19 6 0 8 -2 23 -5 34 -10 49 -10 125 0 126 8 0 8 2
0 5 -9 4 -8 54 1 54 1 0 41 7 89 15 47 8 103 17 122 20 20 2 54 7 75 10 22 3
56 7 77 10 102 14 208 22 392 31 58 3 106 6 107 7 2 2 212 0 357 -3z m-1514
-315 c17 -38 20 -55 12 -56 -34 -4 -62 -10 -162 -33 -158 -38 -312 -79 -450
-121 -30 -10 -59 -18 -65 -20 -5 -1 -17 -5 -25 -8 -24 -9 -154 -51 -165 -53
-17 -3 -344 -125 -400 -149 -84 -36 -131 -55 -145 -57 -8 -2 -17 -5 -20 -9 -3
-3 -30 -15 -60 -28 -82 -35 -128 -56 -318 -147 -95 -46 -174 -82 -176 -81 -1
1 -9 -3 -17 -9 -15 -13 -54 -35 -194 -109 -94 -50 -290 -163 -362 -208 -24
-15 -47 -27 -53 -27 -5 0 -10 -4 -10 -8 0 -5 -12 -14 -27 -21 -24 -11 -391
-249 -403 -261 -3 -3 -25 -19 -50 -35 -25 -17 -51 -35 -57 -42 -7 -6 -29 -21
-50 -34 -21 -13 -40 -26 -43 -29 -3 -3 -50 -39 -105 -80 -55 -40 -101 -77
-103 -82 -2 -4 -10 -8 -17 -8 -7 0 -15 -4 -17 -8 -1 -4 -37 -34 -78 -67 -73
-57 -290 -234 -300 -245 -3 -3 -25 -23 -50 -44 -76 -66 -202 -179 -232 -209
-15 -15 -28 -26 -28 -23 0 6 -444 -437 -491 -490 -61 -69 -64 -60 -5 16 72 95
115 147 149 182 15 16 27 31 27 33 0 4 53 64 93 107 9 10 17 21 17 24 0 3 12
18 28 34 15 15 47 52 72 80 44 52 135 150 185 200 14 14 25 30 25 35 0 11 212
219 326 320 37 33 88 79 113 102 25 23 49 43 52 43 3 0 19 12 36 28 51 47 93
82 98 82 3 0 17 10 31 23 47 42 60 52 134 107 41 30 77 57 80 60 5 6 130 96
180 130 13 8 28 21 36 28 7 6 14 12 17 12 2 0 53 33 113 73 143 96 350 227
359 227 3 0 25 13 48 28 23 16 62 40 87 53 25 13 47 26 50 29 5 5 27 17 145
79 39 20 72 39 75 42 6 7 456 229 464 229 3 0 49 20 102 45 53 25 102 45 109
45 8 0 16 4 19 8 4 7 133 62 156 68 3 0 19 6 35 13 206 88 775 278 950 317 11
2 61 15 110 27 l90 22 21 -60 c12 -33 27 -73 34 -90z m686 -276 c3 -5 10 -7
15 -3 5 3 24 1 42 -5 17 -6 35 -11 40 -11 20 0 133 -66 227 -133 132 -94 172
-107 328 -110 46 0 59 -15 15 -16 -89 -3 -143 -7 -143 -11 0 -3 -17 -5 -37 -5
-21 1 -42 -2 -48 -6 -5 -3 -17 -6 -25 -7 -20 0 -82 -9 -96 -14 -5 -1 -53 18
-105 44 -135 68 -253 95 -436 100 -32 0 -40 4 -36 15 3 8 -7 39 -22 69 -15 30
-25 57 -23 60 6 6 36 13 108 25 30 6 55 11 57 12 7 8 134 4 139 -4z m-716 -84
c83 -11 141 -12 183 -4 36 6 39 4 82 -46 25 -29 45 -55 45 -59 0 -3 -10 -6
-22 -7 -13 0 -97 -15 -188 -34 -152 -30 -176 -33 -300 -28 -181 6 -190 5 -265
-18 -114 -35 -213 -100 -344 -226 -82 -80 -302 -228 -421 -285 -94 -44 -123
-56 -195 -78 -284 -88 -341 -111 -425 -173 -67 -50 -197 -182 -253 -257 -23
-30 -63 -76 -89 -102 -26 -26 -48 -52 -48 -57 0 -25 39 -13 176 53 138 68 232
106 294 120 64 14 293 5 329 -13 9 -4 44 -14 79 -21 34 -7 64 -16 67 -19 2 -4
-26 -26 -61 -50 l-65 -44 -38 21 c-59 34 -162 30 -332 -12 -51 -13 -246 -109
-304 -150 -41 -29 -87 -55 -107 -62 -10 -4 -18 -10 -18 -15 0 -5 -9 -9 -19 -9
-11 0 -21 -4 -23 -8 -3 -7 -82 -47 -143 -73 -11 -5 -80 -29 -152 -53 -128 -43
-160 -46 -109 -12 74 48 224 223 306 356 181 295 231 354 437 520 70 56 230
135 353 175 47 15 99 33 115 40 17 7 49 19 73 26 23 7 42 16 42 21 0 4 3 7 8
6 9 -2 42 10 62 23 8 5 30 16 48 24 58 27 189 122 292 211 19 17 53 44 75 60
22 16 42 31 45 34 8 8 123 83 148 97 12 6 22 9 22 5 0 -4 4 -1 8 6 11 16 177
74 287 99 130 29 215 34 345 18z m4380 -157 c39 -1 73 -5 76 -10 3 -4 11 -5
18 -2 8 3 33 0 57 -6 43 -12 56 -15 102 -25 58 -13 197 -80 243 -117 111 -92
174 -184 174 -255 0 -159 -116 -243 -333 -244 -80 0 -291 45 -372 80 -11 5
-49 21 -85 36 -36 15 -89 40 -117 55 l-53 27 38 17 c20 9 52 18 69 19 18 1 33
5 33 8 0 7 201 3 250 -5 52 -9 84 2 102 32 21 36 14 72 -18 98 -25 20 -163 68
-229 80 -16 3 -41 7 -55 10 -40 8 -63 11 -98 13 -36 1 -36 4 -9 71 5 14 11 38
13 53 7 51 21 66 67 69 23 2 45 2 48 1 4 -2 39 -4 79 -5z m-3309 -246 c-23
-43 -190 -179 -281 -229 -52 -29 -133 -70 -150 -77 -8 -3 -22 -10 -30 -15 -8
-5 -26 -13 -40 -19 -14 -5 -53 -22 -86 -36 -34 -14 -67 -26 -73 -26 -6 0 -19
-4 -29 -10 -9 -5 -66 -26 -127 -46 -60 -19 -117 -38 -125 -41 -8 -3 -19 -7
-25 -9 -5 -2 -53 -21 -105 -42 -52 -22 -174 -71 -270 -110 -178 -72 -342 -149
-460 -217 -36 -21 -81 -46 -100 -57 -53 -31 -212 -140 -240 -165 -14 -13 -28
-23 -32 -23 -3 0 -13 -6 -20 -13 -7 -7 -51 -47 -98 -87 -98 -87 -230 -219
-230 -232 0 -5 -4 -6 -10 -3 -5 3 -10 2 -10 -3 0 -5 -15 -26 -34 -46 -19 -20
-33 -36 -30 -36 3 0 -5 -10 -17 -22 -11 -13 -47 -59 -80 -103 -32 -44 -62 -84
-67 -90 -4 -5 -11 -17 -15 -25 -4 -8 -21 -37 -38 -65 -38 -64 -116 -227 -125
-260 -1 -5 -11 -35 -22 -65 -39 -104 -69 -253 -88 -430 -14 -135 -12 -171 11
-198 16 -18 31 -25 55 -24 55 1 82 30 107 113 30 100 52 162 64 174 5 5 9 17
9 27 0 10 5 18 10 18 6 0 10 6 10 14 0 13 92 159 117 184 7 7 13 16 13 20 0 4
17 25 37 47 20 22 35 41 32 42 -6 2 123 142 136 146 6 3 10 -25 11 -77 1 -80
3 -99 23 -186 30 -137 44 -175 125 -341 130 -268 179 -319 251 -256 31 26 35
64 15 137 -7 25 -13 50 -14 55 -1 6 -4 15 -7 20 -4 6 -5 20 -4 33 1 12 -1 22
-5 22 -4 0 -6 11 -5 25 2 14 0 25 -4 25 -4 0 -7 10 -8 23 0 12 -4 58 -8 102
-4 44 -7 85 -7 90 3 77 12 196 17 215 2 14 7 39 11 55 3 17 13 50 21 75 8 25
16 50 18 55 14 46 24 70 57 137 22 43 40 81 41 85 1 9 109 164 152 219 17 21
67 77 113 124 l83 85 -53 -85 c-44 -69 -71 -131 -84 -190 0 -3 -4 -16 -8 -30
-17 -60 38 -109 65 -57 16 31 151 167 167 167 6 0 12 4 12 8 0 8 144 78 200
97 3 1 19 7 35 14 17 7 35 14 40 15 6 2 24 8 40 15 17 7 57 21 90 32 33 11 65
21 70 23 6 2 13 4 17 5 4 1 26 8 48 16 22 8 40 12 40 8 0 -3 6 -1 13 5 7 6 25
13 40 16 15 2 30 7 35 10 5 3 19 7 33 10 13 3 84 21 158 40 74 19 137 34 140
34 3 0 8 1 11 2 14 5 187 37 244 44 11 2 32 6 46 9 14 4 41 9 60 11 19 3 68
12 108 20 39 7 72 12 72 9 0 -2 6 -1 13 4 6 4 21 8 32 9 11 2 32 5 48 8 15 3
37 8 50 10 12 2 29 7 37 10 8 3 31 7 51 10 20 3 42 8 50 10 8 3 25 7 39 10 14
2 43 9 65 14 22 6 51 13 65 16 24 5 79 19 108 27 7 2 84 28 170 57 86 29 162
54 167 55 11 3 42 17 180 82 50 23 93 41 96 41 4 -1 15 6 25 15 11 9 39 27 64
40 25 13 48 29 52 34 4 6 8 6 8 2 0 -5 15 2 32 15 39 28 66 44 95 57 12 5 30
17 40 25 47 38 114 86 121 86 4 0 14 9 22 20 8 11 18 20 22 20 5 0 29 20 55
45 25 25 47 45 48 45 0 0 41 -38 89 -85 48 -47 92 -82 97 -79 5 3 9 1 9 -4 0
-5 10 -13 23 -17 12 -4 24 -8 27 -10 73 -32 146 -44 245 -41 55 2 107 5 115 8
8 3 35 11 60 17 45 12 206 79 225 93 6 5 36 27 68 49 31 22 57 44 57 49 0 19
41 21 68 2 39 -27 218 -115 282 -140 30 -11 64 -24 75 -28 11 -4 23 -8 28 -9
4 -2 8 -3 10 -5 1 -1 9 -3 17 -5 8 -1 42 -10 75 -18 93 -24 117 -30 155 -33
19 -2 49 -6 65 -10 45 -8 176 -2 225 10 29 8 26 10 160 -114 89 -82 211 -179
252 -201 12 -6 25 -15 28 -18 9 -11 85 -52 170 -92 152 -72 173 -79 270 -86
66 -4 78 -8 97 -31 12 -15 25 -35 28 -44 4 -10 15 -28 25 -40 11 -13 54 -70
96 -127 127 -170 284 -313 410 -373 66 -31 160 -58 202 -58 15 0 32 -4 37 -8
16 -12 45 -69 38 -76 -3 -3 -2 -6 4 -6 6 0 17 -15 24 -32 7 -18 30 -61 51 -96
21 -34 38 -65 38 -67 0 -6 53 -83 128 -185 113 -152 254 -265 357 -285 17 -3
37 -8 45 -10 8 -2 22 -4 31 -4 11 -1 21 -17 29 -48 6 -27 15 -57 20 -68 4 -11
18 -47 31 -80 12 -33 36 -89 53 -125 16 -36 30 -67 30 -70 2 -13 80 -145 88
-148 4 -2 8 -8 8 -13 0 -25 161 -187 218 -219 38 -22 42 -27 43 -64 2 -87 20
-208 44 -306 3 -11 7 -29 9 -40 3 -11 8 -25 11 -30 3 -5 8 -20 10 -32 3 -13 9
-32 14 -43 5 -11 24 -56 42 -100 18 -44 41 -92 51 -106 9 -14 15 -29 11 -33
-3 -3 -2 -6 3 -6 5 0 18 -15 29 -32 26 -46 113 -135 155 -160 19 -12 37 -23
40 -26 3 -2 6 -45 7 -95 2 -84 9 -171 18 -222 36 -201 60 -290 98 -360 21 -39
73 -115 100 -145 37 -43 38 -46 22 -89 -8 -22 -19 -68 -25 -101 -6 -33 -13
-72 -16 -86 -3 -15 -6 -51 -8 -81 -2 -29 -6 -56 -9 -59 -3 -3 -2 -16 2 -28 5
-11 5 -30 1 -41 -4 -11 -3 -25 2 -32 6 -7 5 -14 -2 -18 -6 -3 -7 -11 -3 -18 3
-6 7 -29 8 -51 2 -34 8 -70 30 -166 13 -58 70 -171 111 -218 l36 -43 -26 -62
c-26 -63 -47 -135 -51 -172 -1 -11 -5 -41 -9 -67 -14 -85 -9 -280 9 -361 3
-12 7 -33 9 -47 9 -45 36 -137 51 -174 9 -20 13 -41 10 -46 -3 -4 -1 -10 5
-12 5 -1 11 -12 13 -23 2 -11 12 -38 22 -60 11 -22 19 -42 20 -45 2 -10 117
-235 126 -246 5 -6 7 -13 4 -16 -3 -3 1 -10 8 -17 9 -7 13 -26 10 -53 -4 -56
-35 -266 -48 -328 -2 -14 -6 -36 -9 -50 -8 -50 -69 -306 -81 -345 -7 -22 -21
-67 -30 -100 -45 -156 -139 -420 -165 -467 -6 -10 -10 -22 -10 -27 0 -5 -12
-35 -27 -67 -15 -33 -27 -61 -28 -64 -3 -20 -41 -100 -47 -100 -5 0 -8 -6 -8
-13 0 -17 -145 -301 -215 -422 -33 -55 -67 -115 -77 -134 -10 -19 -21 -37 -25
-40 -8 -6 -28 -38 -51 -83 -7 -16 -18 -28 -23 -28 -5 0 -9 -6 -9 -14 0 -8 -6
-21 -12 -28 -7 -7 -33 -42 -57 -78 -70 -104 -105 -154 -119 -168 -6 -7 -26
-35 -44 -60 -17 -26 -34 -49 -37 -52 -4 -3 -19 -23 -36 -45 -16 -22 -32 -42
-35 -45 -3 -3 -21 -25 -40 -50 -19 -25 -41 -52 -49 -61 -9 -9 -25 -27 -35 -40
-157 -195 -504 -549 -738 -751 -30 -26 -67 -58 -81 -70 -68 -59 -87 -75 -117
-98 -18 -14 -61 -47 -95 -75 -35 -27 -75 -59 -90 -70 -36 -26 -136 -102 -153
-115 -70 -59 -551 -364 -712 -452 -25 -14 -71 -39 -102 -57 -32 -17 -58 -29
-58 -26 0 3 -10 -3 -22 -15 -12 -11 -30 -20 -40 -20 -10 0 -18 -4 -18 -10 0
-5 -5 -10 -11 -10 -11 0 -57 -21 -244 -111 -60 -29 -112 -53 -115 -54 -3 -1
-32 -14 -65 -29 -33 -16 -66 -29 -72 -29 -7 0 -13 -4 -13 -9 0 -4 -3 -7 -7 -6
-5 0 -17 -2 -28 -7 -19 -7 -104 -42 -150 -60 -11 -4 -24 -9 -30 -11 -5 -1 -40
-14 -77 -28 -38 -14 -68 -22 -68 -18 0 4 -4 1 -8 -5 -4 -7 -17 -14 -27 -16
-11 -1 -24 -5 -30 -8 -10 -6 -145 -53 -155 -54 -3 0 -9 -3 -15 -6 -5 -4 -26
-10 -45 -15 -43 -10 -42 -9 -60 -17 -16 -6 -98 -30 -115 -33 -5 -1 -13 -3 -17
-4 -5 -1 -12 -4 -18 -5 -5 -1 -11 -3 -12 -5 -2 -1 -10 -3 -18 -5 -8 -1 -51
-12 -96 -24 -45 -11 -92 -23 -105 -25 -13 -3 -25 -5 -26 -5 -2 -1 -5 -1 -8 -2
-2 0 -19 -5 -37 -10 -18 -5 -48 -12 -67 -15 -18 -3 -43 -8 -55 -10 -54 -12
-175 -35 -206 -40 -19 -3 -46 -7 -60 -10 -14 -3 -41 -7 -60 -10 -59 -8 -65 -9
-77 -17 -6 -4 -14 -3 -18 3 -4 7 -12 7 -25 0 -10 -5 -46 -12 -81 -15 -35 -3
-80 -8 -99 -10 -19 -2 -69 -6 -110 -9 -41 -3 -75 -6 -75 -7 0 -13 -677 -18
-830 -6 -168 13 -190 15 -255 21 -36 4 -72 9 -81 12 -9 2 -38 7 -65 9 -27 3
-59 7 -71 9 -28 6 -114 20 -135 22 -10 1 -19 2 -20 4 -2 1 -12 3 -23 5 -11 2
-33 6 -50 8 -16 3 -52 11 -80 18 -27 6 -70 13 -95 15 -25 2 -71 10 -104 19
-32 9 -80 17 -107 18 -27 1 -49 6 -49 10 0 5 -5 5 -12 1 -7 -4 -30 -9 -52 -10
-57 -4 -80 -8 -86 -14 -3 -3 -22 -11 -44 -19 l-38 -13 -47 50 c-25 27 -58 63
-72 78 -33 37 -199 192 -199 186 0 -2 -23 17 -50 41 -54 48 -206 147 -227 147
-7 0 -13 4 -13 8 0 4 -17 14 -37 21 -21 8 -56 22 -78 31 -22 10 -53 21 -70 24
-16 3 -41 9 -55 13 -53 13 -204 4 -262 -16 l-57 -19 -40 52 c-56 74 -185 204
-256 256 -33 25 -61 48 -63 53 -2 4 -7 7 -12 7 -4 0 -37 18 -71 39 -182 113
-347 171 -484 171 -59 0 -76 14 -90 72 -4 16 -11 28 -16 28 -5 0 -9 5 -9 10 0
6 -19 41 -41 78 -23 37 -50 83 -61 102 -11 19 -24 40 -28 45 -4 6 -18 28 -30
50 -39 70 -133 195 -197 263 -35 36 -63 69 -63 74 0 4 -7 8 -15 8 -7 0 -18 6
-22 13 -13 22 -123 102 -178 129 -44 22 -86 37 -120 44 -5 1 -13 3 -17 4 -10
3 -16 4 -60 13 -41 8 -47 21 -51 90 -1 20 -6 37 -10 37 -4 0 -7 6 -6 13 4 17
-9 69 -41 167 -80 245 -165 400 -289 531 -9 9 -47 52 -86 94 -38 43 -85 91
-103 108 -69 65 -96 87 -104 87 -5 0 -6 5 -3 10 3 6 -1 10 -9 10 -9 0 -16 3
-16 8 0 4 -24 23 -53 42 -28 19 -53 38 -55 43 -2 4 -8 7 -13 7 -5 0 -32 15
-61 34 -29 18 -75 45 -103 60 -27 14 -57 30 -65 36 -58 37 -154 90 -162 90 -5
0 -6 5 -3 10 3 6 1 10 -5 10 -12 0 -69 120 -140 295 -18 44 -36 89 -41 100
-10 23 -90 245 -93 260 -1 6 -11 37 -21 70 -10 33 -19 62 -20 65 -1 3 -7 23
-14 45 -10 33 -49 175 -68 250 -3 11 -6 29 -8 40 -1 11 -5 27 -8 35 -6 16 -42
187 -57 275 -5 28 -11 61 -14 75 -12 66 -28 172 -31 207 -2 21 -6 52 -9 68 -2
17 -7 62 -11 100 -3 39 -8 88 -11 110 -16 126 -27 775 -12 775 5 0 4 8 -1 19
-6 10 -8 21 -5 24 3 2 7 49 10 103 6 127 16 253 29 349 2 16 7 57 10 90 4 33
9 69 11 80 3 11 7 38 10 60 2 22 7 51 9 65 26 155 25 149 40 222 4 15 8 41 10
58 3 18 7 40 10 50 3 10 8 27 10 37 4 21 33 149 40 177 2 10 14 55 26 100 11
45 22 88 24 96 2 8 4 16 5 18 3 3 6 13 15 50 4 18 12 35 16 38 5 3 7 9 4 14
-3 5 0 21 6 37 6 15 13 39 15 52 3 14 8 29 12 35 4 6 7 13 7 16 2 12 58 186
64 195 3 6 6 12 7 15 0 3 3 12 7 20 3 8 15 42 26 75 12 33 25 69 30 80 5 11
21 52 36 90 15 39 33 84 40 100 7 17 20 48 29 70 61 147 261 550 348 701 36
61 68 117 71 125 4 8 16 28 27 44 11 17 25 41 32 55 7 14 16 30 21 35 4 6 22
33 39 60 91 144 128 199 166 245 16 19 48 64 72 100 24 36 50 71 57 78 7 8 21
28 30 45 15 31 163 229 218 292 149 174 176 204 260 293 118 126 145 152 157
152 6 0 9 3 6 6 -8 7 180 189 272 263 24 20 51 43 60 51 15 14 87 75 148 125
13 11 33 28 43 38 10 9 24 17 29 17 6 0 10 4 10 8 0 5 27 28 60 52 33 24 60
47 60 52 0 5 4 7 9 4 5 -4 11 -3 13 2 5 12 85 72 97 72 6 0 11 4 11 8 0 21
505 354 712 470 140 78 265 146 291 158 18 8 39 19 47 24 28 17 377 180 387
180 3 0 21 7 41 16 46 20 96 40 122 49 3 1 19 7 35 14 17 6 44 16 60 22 17 6
39 15 50 20 47 20 139 48 143 44 3 -3 10 -1 16 4 16 14 248 81 258 75 4 -3 8
-1 8 4 0 5 6 9 13 9 17 1 102 20 102 23 0 3 78 19 130 26 22 4 42 8 44 10 2 2
10 4 18 4 10 0 11 -5 4 -18z m4254 -197 c45 -7 99 -18 110 -21 6 -2 24 -6 40
-9 17 -3 37 -8 45 -12 8 -3 18 -7 23 -8 4 -2 8 -3 10 -4 1 -2 12 -4 24 -7 12
-2 46 -15 77 -29 30 -14 58 -25 61 -25 4 0 20 -9 36 -21 16 -11 29 -18 29 -14
0 7 108 -72 136 -100 27 -27 96 -124 98 -139 1 -6 5 -16 8 -22 8 -13 23 -115
19 -129 -2 -5 -4 -17 -5 -25 -5 -34 -19 -70 -27 -70 -5 0 -9 -7 -9 -17 0 -9
-3 -13 -7 -10 -3 4 -11 0 -17 -9 -18 -25 -115 -51 -176 -49 -57 3 -199 47
-211 66 -3 6 -9 10 -13 9 -7 -2 -96 40 -106 50 -3 3 -18 12 -33 20 -16 8 -40
24 -53 37 -14 12 -26 21 -29 20 -2 -1 -12 5 -22 13 -10 8 -36 28 -58 45 -56
42 -96 77 -105 95 -15 29 191 15 285 -19 28 -10 62 -17 78 -15 26 2 62 29 62
45 0 4 3 11 7 14 4 4 -1 24 -12 44 -16 31 -34 44 -122 86 -56 27 -105 50 -108
51 -3 0 -16 5 -30 11 -14 6 -47 20 -75 31 l-50 20 0 48 c0 27 1 53 3 57 3 7
44 4 117 -8z m956 -605 c35 -12 68 -25 73 -30 6 -6 18 -10 28 -10 10 0 18 -4
18 -10 0 -5 6 -10 14 -10 17 0 108 -50 118 -64 4 -6 8 -7 8 -3 0 7 118 -68
130 -83 3 -3 21 -17 39 -30 43 -30 106 -90 94 -90 -4 0 -3 -4 2 -8 46 -31 89
-147 89 -237 1 -59 -4 -78 -27 -117 -32 -55 -76 -89 -120 -94 -18 -1 -34 -4
-37 -5 -7 -2 -8 -2 -67 5 -123 14 -224 74 -368 221 -72 72 -101 108 -169 202
l-38 54 52 -6 c86 -10 227 -69 288 -120 52 -44 81 -54 113 -43 57 20 68 87 22
135 -15 16 -50 47 -78 69 -27 21 -61 49 -75 62 -14 12 -28 22 -32 22 -3 0 -13
6 -20 13 -22 22 -106 77 -117 77 -6 0 -11 4 -11 9 0 5 -9 13 -21 16 -17 6 -19
12 -14 33 4 15 9 34 10 42 2 8 4 16 4 18 2 6 34 0 92 -18z m-6942 -447 c-8 -9
-32 -35 -54 -58 -65 -69 -88 -96 -144 -170 -29 -38 -58 -77 -64 -85 -7 -8 -13
-18 -15 -23 -2 -8 -23 -44 -51 -87 -9 -14 -30 -54 -46 -90 -17 -36 -32 -67
-35 -70 -3 -3 -7 -14 -9 -25 -1 -11 -8 -29 -14 -40 -6 -11 -12 -24 -13 -30 -2
-5 -14 -55 -29 -110 -25 -95 -38 -207 -37 -305 0 -42 -1 -43 -9 -15 -5 17 -11
44 -13 60 -3 17 -6 31 -7 33 -1 1 -3 7 -4 12 -1 6 -4 11 -5 13 -9 8 -18 227
-10 227 7 0 4 78 -4 117 -5 23 -17 35 -55 52 -45 22 -49 22 -85 7 -45 -19
-120 -80 -190 -155 -28 -30 -59 -63 -68 -73 -10 -10 -18 -22 -18 -27 0 -5 -3
-11 -8 -13 -7 -3 -73 -85 -100 -124 -11 -17 -12 -17 -7 6 6 24 43 116 68 170
7 14 16 28 22 32 5 4 7 8 3 8 -6 0 52 108 74 135 145 186 345 367 529 478 113
69 218 116 316 142 48 12 90 23 92 24 2 1 -3 -7 -10 -16z m7776 -279 c79 -41
192 -115 230 -150 15 -13 28 -24 30 -24 10 0 113 -103 154 -155 50 -63 99
-145 108 -180 24 -96 4 -227 -42 -269 -53 -48 -47 -47 -165 -49 -63 -1 -84 3
-130 26 -66 33 -88 52 -160 137 -30 36 -57 67 -60 70 -13 12 -129 189 -151
230 -13 25 -28 48 -34 52 -15 11 2 21 22 13 10 -5 26 -10 35 -11 28 -6 173
-79 219 -112 24 -16 61 -49 82 -71 32 -34 45 -41 76 -41 24 0 44 7 53 18 48
55 30 91 -129 262 -24 25 -43 48 -43 53 0 4 -4 7 -9 7 -5 0 -32 21 -59 48 -78
75 -121 109 -128 103 -4 -3 -4 2 -1 12 4 11 10 30 13 43 3 13 9 24 13 24 4 0
38 -16 76 -36z m794 -869 c95 -65 301 -281 301 -314 0 -6 5 -11 10 -11 6 0 10
-9 10 -20 0 -11 4 -20 8 -20 8 0 28 -54 40 -110 22 -106 -20 -252 -88 -300
-16 -12 -30 -18 -30 -14 0 3 -7 1 -15 -6 -20 -17 -101 -7 -160 19 -53 24 -230
194 -220 211 4 6 1 10 -5 10 -12 0 -134 247 -139 283 0 4 -7 20 -16 37 -8 16
-15 34 -15 39 0 13 74 -27 112 -61 18 -16 34 -28 37 -28 9 0 81 -68 81 -76 0
-3 13 -23 30 -44 43 -54 97 -67 132 -30 38 41 30 82 -33 172 -11 14 -19 29
-19 32 0 3 -7 14 -15 23 -8 10 -52 64 -99 121 l-85 102 20 35 21 34 47 -27
c26 -15 66 -40 90 -57z m-12080 -371 c-11 -32 -23 -66 -26 -74 -3 -8 -7 -22
-8 -30 -2 -8 -6 -26 -9 -40 -7 -30 -23 -128 -31 -190 -3 -25 -8 -94 -11 -155
-7 -185 -20 -268 -53 -350 -28 -70 -144 -295 -151 -295 -6 0 -10 -5 -10 -11 0
-12 -100 -152 -112 -157 -5 -2 -8 -8 -8 -14 0 -8 -45 -73 -60 -88 -16 -14 -88
-177 -96 -215 -2 -11 -6 -30 -9 -42 -19 -86 -24 -142 -30 -299 -10 -270 -25
-463 -41 -538 -3 -12 -7 -30 -8 -41 -2 -11 -9 -42 -16 -70 -6 -27 -13 -57 -15
-65 -21 -98 -136 -355 -175 -390 -3 -3 -23 -27 -45 -55 -21 -27 -52 -62 -67
-77 -15 -16 -25 -28 -22 -28 3 0 -6 -15 -20 -32 -15 -18 -30 -37 -34 -43 -29
-36 -135 -261 -147 -310 -1 -5 -5 -17 -8 -25 -8 -19 -67 -236 -73 -269 -9 -45
-60 -168 -98 -232 -68 -118 -72 -123 -168 -218 -91 -90 -85 -85 -179 -152
-130 -93 -243 -195 -322 -290 -15 -18 -28 -31 -28 -28 -2 4 -2 11 -14 162 l-7
88 39 34 c45 42 265 212 305 237 49 31 184 171 221 231 48 75 68 131 132 372
85 314 131 412 296 630 155 205 208 300 255 461 28 97 29 104 28 319 -1 121
-2 267 -3 325 -3 128 3 193 24 288 20 85 57 155 163 305 43 59 84 119 92 132
8 13 50 75 93 139 117 173 192 345 203 464 2 31 9 82 14 112 24 135 30 161 47
194 13 24 13 31 1 42 -12 12 -17 12 -35 -1 -47 -33 -164 -218 -262 -414 -95
-190 -134 -258 -186 -321 -59 -73 -184 -193 -309 -298 -155 -130 -307 -276
-352 -337 -16 -22 -31 -42 -34 -45 -12 -11 -48 -69 -77 -120 -42 -75 -79 -181
-114 -328 -71 -298 -178 -506 -382 -739 -73 -82 -105 -104 -91 -61 4 13 8 36
11 53 2 16 5 41 7 55 3 14 8 47 11 74 8 61 21 96 35 96 6 0 9 4 6 9 -4 5 -2
11 2 13 5 1 28 39 52 82 24 44 51 87 62 98 10 10 15 18 10 18 -4 0 -2 4 3 8
29 21 67 98 90 182 15 52 29 102 32 110 3 8 7 20 7 25 10 68 90 276 153 395
30 58 62 119 71 135 8 17 18 32 21 35 3 3 12 17 20 33 8 15 18 27 23 27 4 0 8
7 8 15 0 9 7 18 15 21 8 4 13 9 11 13 -3 4 13 27 35 50 21 24 39 45 39 46 0 5
86 90 119 118 18 15 29 27 24 27 -4 0 4 8 19 18 46 30 182 135 199 154 9 10
19 18 22 18 4 0 43 36 185 173 40 38 124 164 172 257 34 66 136 235 155 257 5
6 23 30 39 52 17 23 33 41 38 41 4 0 8 4 8 10 0 13 67 79 74 72 3 -3 6 0 6 6
0 15 36 52 50 52 6 0 10 4 10 9 0 4 19 21 43 37 23 16 44 32 47 36 7 9 114 85
117 83 1 0 -7 -28 -18 -61z m12541 -471 c0 -5 30 -39 66 -78 71 -75 154 -185
154 -204 0 -6 4 -11 9 -11 5 0 13 -10 17 -22 4 -13 10 -25 15 -28 12 -8 78
-156 85 -192 14 -76 19 -146 12 -188 -12 -76 -17 -95 -28 -98 -6 -2 -8 -7 -5
-12 9 -15 -51 -66 -92 -78 -60 -18 -118 -15 -171 10 -51 24 -55 27 -125 96
-82 82 -186 321 -221 509 -7 40 -11 75 -8 78 5 5 41 -12 58 -29 7 -6 24 -20
40 -31 64 -46 137 -144 180 -243 35 -81 94 -107 142 -62 37 34 21 106 -65 287
-13 29 -24 55 -23 58 0 3 -4 11 -10 18 -6 6 -33 47 -61 90 l-50 78 28 29 c27
28 53 39 53 23z m2342 -505 c88 -225 86 -213 48 -289 -75 -149 -101 -275 -105
-519 -2 -96 -6 -186 -10 -200 -3 -14 -7 -29 -9 -35 -10 -40 -46 -141 -71 -200
-67 -156 -117 -299 -129 -370 -34 -188 -31 -260 14 -402 39 -121 60 -245 60
-352 0 -104 -12 -173 -52 -306 -48 -161 -79 -269 -82 -290 -2 -11 -7 -41 -11
-66 -3 -25 -8 -140 -10 -255 -1 -115 -5 -219 -8 -230 -3 -12 -8 -37 -11 -56
-10 -61 -57 -201 -89 -263 -30 -58 -112 -169 -170 -230 -54 -57 -194 -280
-217 -345 -34 -101 -36 -120 -8 -120 18 0 34 18 75 83 84 133 122 166 286 256
75 41 185 126 235 181 30 32 82 106 82 116 0 4 6 15 14 23 16 19 50 104 110
276 53 151 85 210 203 378 86 122 128 175 205 258 85 93 103 116 154 192 53
78 55 80 54 47 -1 -19 -1 -79 0 -133 1 -77 -2 -103 -14 -116 -9 -10 -16 -22
-16 -27 0 -24 -96 -150 -170 -225 -45 -44 -93 -100 -108 -122 -15 -23 -31 -45
-35 -48 -5 -3 -8 -9 -8 -13 1 -7 -3 -17 -20 -61 -7 -16 -13 -36 -15 -43 -3
-16 -31 -111 -52 -177 -9 -27 -17 -54 -18 -60 -6 -31 -74 -161 -120 -230 -55
-83 -120 -154 -189 -205 -22 -16 -44 -33 -50 -38 -5 -4 -57 -37 -115 -72 -58
-36 -109 -68 -115 -73 -5 -4 -37 -25 -70 -47 -33 -21 -87 -63 -119 -94 -33
-31 -62 -57 -66 -58 -3 -2 -28 -32 -55 -68 -28 -36 -55 -68 -61 -72 -6 -4 -17
-21 -24 -38 -7 -16 -16 -30 -20 -30 -4 0 -19 -18 -34 -40 -14 -21 -70 -85
-124 -140 -54 -56 -96 -103 -93 -106 2 -2 -1 -4 -7 -4 -6 0 -23 -11 -37 -25
-30 -31 -32 -19 -6 28 21 38 87 210 95 248 6 31 8 38 50 194 39 149 71 238 97
277 11 14 19 29 19 32 0 6 80 126 100 148 6 7 33 42 62 78 28 36 56 68 62 72
6 4 7 8 2 8 -5 0 0 10 11 23 37 41 80 132 89 187 11 64 16 112 15 150 0 44 -9
145 -11 145 -2 0 -8 34 -14 85 -2 25 -8 68 -12 95 -12 91 -8 250 10 345 3 14
7 39 9 55 3 17 23 102 46 190 43 165 47 185 57 295 3 35 8 68 10 72 3 5 1 8
-5 8 -7 0 -7 8 -1 25 5 14 6 25 1 25 -5 0 -8 16 -7 36 1 20 -2 38 -6 40 -5 3
-8 14 -8 24 0 11 -14 64 -32 117 -17 54 -33 103 -34 108 -4 19 -16 80 -20 105
-6 36 -5 191 1 220 3 14 8 40 11 58 3 19 12 51 19 72 7 21 11 41 8 44 -4 3 -1
6 6 6 7 0 9 5 6 10 -4 6 -1 17 5 25 7 8 10 15 6 15 -7 0 19 67 62 161 53 116
62 182 47 339 -10 99 -13 262 -5 275 4 6 7 22 8 36 5 85 104 314 193 448 27
41 49 78 49 82 0 5 5 9 10 9 6 0 10 4 10 9 0 6 13 30 30 54 16 24 41 67 55 95
14 29 30 52 34 52 5 0 33 -64 63 -142z m-1899 -528 c152 -181 278 -456 278
-605 0 -73 -6 -100 -26 -131 -8 -13 -12 -24 -9 -24 12 0 -46 -50 -77 -65 -16
-9 -34 -13 -39 -10 -5 3 -11 1 -15 -5 -4 -6 -11 -7 -17 -4 -6 4 -25 8 -43 9
-47 3 -102 31 -153 79 -50 47 -142 179 -142 205 0 9 -4 21 -8 27 -5 5 -14 34
-21 64 -6 30 -14 66 -17 80 -16 74 -34 216 -29 228 4 11 17 3 48 -29 69 -72
96 -110 112 -159 26 -77 79 -119 129 -100 54 20 62 63 29 160 -8 25 -16 50
-17 55 -2 11 -22 65 -41 110 -7 17 -20 47 -29 69 l-16 38 33 29 c30 26 33 27
45 11 7 -9 18 -24 25 -32z m-12794 -7 c-44 -112 -135 -381 -166 -493 -8 -30
-18 -57 -21 -60 -4 -3 -7 -9 -8 -15 -1 -20 -17 -90 -23 -100 -3 -5 -7 -19 -8
-30 -2 -11 -6 -27 -10 -35 -3 -8 -7 -22 -8 -30 -3 -17 -33 -147 -40 -170 -4
-17 -55 -253 -60 -285 -23 -126 -37 -206 -40 -235 -3 -19 -12 -84 -20 -145 -9
-60 -18 -137 -20 -170 -3 -33 -7 -82 -10 -110 -22 -255 -34 -593 -21 -614 4
-5 2 -12 -3 -15 -6 -4 -6 -18 -1 -36 5 -19 5 -30 -1 -30 -6 0 -7 -5 -4 -11 4
-6 8 -61 10 -122 5 -158 19 -345 40 -507 4 -25 8 -58 10 -75 5 -45 17 -127 21
-150 8 -39 18 -110 18 -137 1 -16 4 -28 7 -28 4 0 10 -21 13 -47 4 -27 9 -55
11 -63 2 -8 5 -26 8 -40 13 -58 26 -117 36 -154 5 -22 8 -44 5 -48 -3 -4 0 -8
5 -8 6 0 11 -11 11 -25 0 -13 4 -34 9 -47 5 -13 21 -66 35 -118 65 -239 165
-514 276 -760 49 -109 52 -120 55 -210 2 -52 6 -140 10 -195 3 -55 8 -129 10
-165 4 -59 13 -141 20 -180 2 -9 6 -47 10 -85 3 -38 8 -73 11 -77 2 -4 6 -26
9 -50 2 -24 6 -53 8 -64 3 -12 8 -37 11 -55 3 -19 10 -49 15 -66 5 -18 7 -33
5 -33 -3 0 -2 -6 3 -12 4 -7 8 -17 9 -23 12 -69 155 -385 175 -385 5 0 9 -5 9
-10 0 -13 75 -116 107 -146 12 -12 19 -25 16 -28 -4 -3 2 -6 12 -6 10 0 16 -3
13 -6 -3 -3 15 -24 40 -47 26 -23 54 -49 62 -57 21 -22 109 -77 144 -90 19 -7
25 -14 20 -23 -18 -25 -6 -204 17 -266 6 -14 10 -26 9 -26 -4 0 24 -62 53
-120 42 -85 98 -158 191 -251 72 -71 217 -194 230 -194 2 0 32 -18 66 -41 76
-50 282 -154 346 -173 19 -6 20 -13 19 -82 -1 -41 2 -77 7 -80 4 -3 5 -10 2
-17 -2 -7 7 -51 20 -99 26 -89 75 -183 133 -255 34 -43 123 -135 123 -127 0 4
33 -22 62 -48 10 -10 19 -17 21 -16 1 1 22 -12 47 -28 79 -50 234 -130 322
-165 29 -12 64 -26 78 -32 14 -5 30 -11 35 -13 6 -2 35 -12 65 -23 30 -11 63
-20 72 -21 9 0 16 -8 16 -17 -1 -34 14 -138 22 -153 4 -8 8 -19 9 -25 8 -75
88 -203 196 -311 59 -60 174 -152 218 -175 12 -7 24 -15 27 -18 3 -3 23 -15
45 -26 22 -11 43 -24 47 -30 4 -5 8 -7 8 -3 0 4 28 -6 63 -21 68 -31 171 -68
208 -75 13 -2 42 -9 64 -14 22 -6 54 -14 70 -16 17 -3 39 -8 50 -10 11 -2 42
-7 69 -10 27 -4 53 -9 56 -11 4 -2 12 -28 19 -57 10 -47 22 -75 77 -179 23
-43 125 -144 189 -187 124 -83 304 -146 515 -178 19 -3 42 -8 50 -11 25 -9
138 -15 268 -16 67 -1 122 -5 122 -9 0 -10 42 -101 49 -108 4 -3 12 -17 20
-32 8 -16 18 -28 23 -28 4 0 8 -4 8 -9 0 -5 -15 -7 -32 -6 -95 9 -174 18 -268
31 -58 8 -127 17 -155 20 -27 2 -57 7 -65 10 -8 4 -33 8 -55 10 -22 2 -51 6
-65 9 -14 3 -36 8 -50 10 -14 2 -34 6 -45 8 -11 3 -42 8 -69 11 -27 4 -53 9
-58 12 -9 6 -36 12 -83 19 -37 5 -68 11 -120 24 -22 6 -97 24 -167 41 -70 17
-155 43 -190 57 -99 40 -186 82 -193 93 -3 5 -15 10 -26 10 -10 0 -19 5 -19
12 0 6 -3 9 -6 5 -3 -3 -24 5 -45 19 -21 13 -42 24 -45 24 -4 0 -22 11 -41 26
-18 14 -33 22 -33 18 0 -4 -8 0 -17 8 -10 9 -22 17 -28 19 -15 6 -196 115
-219 132 -30 22 -158 107 -161 107 -2 0 -35 23 -72 50 -37 28 -79 58 -93 68
-13 9 -35 27 -48 39 -12 13 -25 22 -28 22 -3 0 -23 15 -44 33 -21 18 -51 43
-67 55 -15 12 -45 38 -67 57 -21 20 -41 36 -45 36 -3 0 -29 22 -57 48 -28 26
-95 88 -149 137 -54 50 -116 107 -139 128 -68 64 -284 277 -281 277 2 0 -22
26 -53 58 -48 50 -102 110 -192 212 -8 10 -26 32 -39 49 -14 18 -36 44 -50 60
-24 25 -89 100 -151 174 -14 16 -34 40 -45 52 -11 13 -36 42 -57 66 -20 24
-46 55 -58 69 -12 14 -38 45 -58 69 -21 24 -47 55 -59 67 -13 13 -23 26 -23
29 0 3 -8 14 -17 24 -38 40 -63 73 -63 81 0 5 -4 10 -8 12 -19 8 -284 364
-347 467 -6 9 -17 27 -26 41 -88 137 -236 386 -331 560 -14 25 -40 72 -58 105
-82 148 -245 479 -340 690 -17 39 -41 90 -52 115 -25 55 -40 92 -44 105 -1 6
-10 28 -20 50 -10 22 -18 42 -19 45 0 3 -6 14 -12 25 -6 11 -13 29 -14 40 -2
11 -7 22 -11 25 -3 3 -8 14 -10 25 -1 11 -5 22 -8 25 -5 4 -46 106 -54 135 -2
6 -9 24 -15 40 -7 17 -14 37 -16 45 -2 8 -18 53 -35 100 -27 73 -69 198 -76
223 -1 4 -3 9 -4 12 -1 3 -4 10 -5 15 -1 6 -4 12 -5 15 -1 3 -3 8 -4 13 -2 7
-31 105 -62 202 -15 51 -45 162 -90 335 -3 11 -6 25 -8 30 -2 6 -6 28 -10 50
-4 22 -9 45 -11 50 -1 6 -3 13 -5 17 -5 18 -30 130 -35 155 -2 15 -7 38 -9 49
-11 55 -27 171 -31 229 -22 276 -26 962 -7 999 3 5 6 41 7 80 3 71 13 199 20
246 2 14 6 54 10 90 4 36 8 76 10 90 2 14 9 63 15 110 12 93 16 118 30 200 5
30 12 73 15 95 4 22 8 47 10 55 2 8 7 31 10 50 3 19 10 58 15 85 10 47 14 65
25 117 2 12 7 40 11 62 3 22 8 44 11 49 3 4 6 18 8 30 2 12 6 33 9 47 4 14 8
34 11 45 10 45 14 64 35 145 12 47 23 92 25 100 7 35 77 278 91 313 7 20 11
37 8 37 -4 0 -1 7 6 15 7 8 9 15 5 15 -4 0 -2 7 5 15 6 8 9 19 5 25 -3 5 -1
10 6 10 7 0 10 3 7 6 -6 5 131 412 161 479 13 28 24 58 27 74 1 7 7 18 13 24
6 6 11 17 11 24 0 7 9 32 19 56 11 23 32 71 47 107 49 118 54 130 59 130 2 0
0 -12 -6 -27z m13084 -1060 c20 -51 42 -112 47 -135 6 -24 13 -52 16 -63 2
-11 6 -34 8 -51 2 -17 5 -35 8 -40 7 -12 2 -192 -6 -229 -11 -51 -28 -89 -58
-127 -26 -34 -88 -80 -113 -84 -5 -1 -22 -4 -37 -7 -74 -15 -181 70 -235 183
-45 96 -56 161 -56 330 0 140 4 189 15 196 5 3 6 10 2 15 -3 6 -3 17 0 26 5
13 10 11 26 -10 11 -14 20 -28 20 -32 0 -4 8 -19 19 -33 26 -37 88 -207 96
-264 13 -88 88 -121 139 -60 20 25 24 63 13 127 -11 64 -26 168 -25 174 0 3
-1 8 -2 11 -1 3 -4 16 -6 30 -8 57 -12 79 -18 97 -5 15 3 21 47 34 28 8 55 13
58 10 3 -3 22 -48 42 -98z m90 -843 c12 -35 26 -88 34 -130 11 -55 7 -270 -6
-330 -7 -30 -14 -64 -17 -75 -7 -38 -53 -174 -65 -197 -7 -13 -14 -30 -15 -38
-3 -17 -22 -62 -79 -185 -23 -49 -48 -104 -55 -122 l-14 -31 -39 81 c-71 149
-114 258 -109 280 1 4 -2 7 -7 7 -5 0 -12 19 -17 43 -10 52 -11 60 -14 72 -2
6 -4 15 -5 20 -1 6 -5 26 -8 45 -15 75 -17 98 -17 170 -1 130 20 270 39 270
15 0 84 -175 95 -242 3 -18 10 -59 15 -91 11 -61 24 -81 64 -96 36 -14 84 18
92 63 6 32 -1 337 -10 416 -4 34 -2 37 53 66 68 36 75 37 85 4z m1903 -2098
c-5 -9 -18 -68 -19 -89 0 -7 -4 -13 -9 -13 -5 0 -7 -4 -4 -9 3 -4 1 -23 -4
-42 -6 -19 -12 -45 -15 -59 -3 -14 -21 -81 -40 -150 -20 -69 -38 -134 -39
-145 -10 -51 -167 -513 -205 -600 -5 -11 -23 -58 -41 -105 -18 -47 -40 -103
-50 -125 -10 -22 -39 -89 -65 -150 -59 -138 -265 -555 -275 -555 -3 0 -7 -6
-7 -13 0 -7 -18 -44 -40 -82 -22 -39 -49 -86 -59 -105 -11 -19 -60 -102 -109
-183 -50 -82 -98 -163 -109 -180 -10 -18 -22 -33 -27 -35 -5 -2 -9 -8 -9 -12
0 -8 -34 -65 -57 -95 -5 -6 -24 -34 -43 -63 -19 -28 -39 -52 -43 -52 -5 0 -6
-4 -3 -8 2 -4 -10 -27 -27 -49 -18 -23 -54 -73 -82 -112 -27 -39 -54 -71 -59
-71 -5 0 -7 -3 -3 -6 3 -4 1 -12 -6 -19 -7 -7 -19 -23 -27 -35 -8 -12 -19 -28
-25 -34 -5 -6 -39 -49 -75 -96 -35 -47 -72 -94 -81 -105 -10 -11 -41 -49 -70
-85 -29 -36 -60 -73 -68 -82 -9 -10 -25 -29 -36 -43 -11 -14 -29 -36 -40 -49
-11 -12 -40 -46 -65 -75 -25 -29 -65 -74 -90 -101 -25 -27 -79 -86 -120 -131
-154 -170 -470 -480 -699 -685 -30 -27 -65 -59 -77 -71 -13 -13 -28 -23 -34
-23 -5 0 -10 -4 -10 -8 0 -4 -30 -32 -66 -62 -36 -30 -75 -65 -87 -78 -11 -12
-24 -22 -29 -22 -5 0 -20 -11 -33 -24 -61 -61 -113 -88 -240 -125 -66 -19 -95
-26 -155 -36 -14 -2 -34 -6 -45 -8 -32 -7 -105 -19 -139 -23 -80 -9 -316 -71
-383 -100 -18 -8 -50 -21 -70 -30 -75 -33 -170 -95 -221 -144 -29 -28 -52 -54
-52 -59 0 -5 -28 -10 -62 -10 -100 -1 -277 -15 -328 -26 -13 -2 -40 -7 -60
-10 -19 -3 -82 -19 -140 -35 -58 -17 -109 -32 -115 -33 -5 -2 -20 -9 -32 -15
-13 -7 -23 -10 -23 -7 0 3 -10 -1 -23 -10 -13 -8 -27 -12 -30 -8 -4 3 -7 2 -7
-4 0 -6 -14 -16 -31 -23 -17 -7 -37 -20 -46 -28 -13 -14 -23 -13 -86 8 -40 13
-81 24 -92 26 -11 2 -31 6 -45 9 -29 7 -65 12 -135 21 -62 8 -237 11 -250 5
-5 -3 -19 -6 -30 -7 -105 -9 -286 -93 -349 -163 -18 -20 -19 -20 -75 8 -73 37
-273 116 -331 131 -25 6 -52 14 -60 17 -82 33 -293 34 -378 2 -13 -5 -28 -7
-33 -3 -5 3 -9 0 -9 -7 0 -7 -3 -10 -6 -6 -3 3 -32 -8 -64 -24 l-58 -30 -34
19 c-18 11 -63 38 -100 60 -89 54 -175 98 -245 123 -32 11 -65 23 -73 26 -8 3
-26 8 -40 10 -13 2 -27 7 -30 11 -3 4 -14 8 -25 10 -11 2 -31 7 -45 12 -101
38 -301 33 -395 -9 -42 -19 -53 -19 -86 2 -157 99 -355 194 -504 242 -141 45
-213 58 -336 60 l-126 1 -34 40 c-63 73 -124 137 -227 240 l-102 102 67 -13
c64 -12 106 -18 206 -30 23 -3 60 -7 82 -10 50 -7 115 -13 225 -20 120 -9 126
-10 190 -37 14 -6 30 -13 35 -14 6 -2 69 -24 140 -49 72 -26 135 -48 140 -49
19 -5 160 -48 175 -53 23 -9 141 -43 170 -49 14 -2 40 -9 58 -15 18 -6 43 -13
55 -15 12 -2 40 -8 62 -13 80 -19 90 -21 115 -27 35 -7 61 -12 90 -17 14 -3
41 -8 60 -12 19 -4 46 -9 60 -10 14 -2 25 -4 25 -5 0 -3 26 -7 73 -11 17 -2
32 -6 32 -9 0 -3 26 -6 58 -8 31 -2 58 -7 60 -12 2 -5 14 -5 28 0 13 5 24 6
24 2 0 -5 12 -9 28 -9 39 -1 112 -12 123 -19 5 -3 9 0 9 6 0 6 5 8 12 4 15 -9
28 -11 125 -16 40 -1 73 -5 73 -8 0 -7 99 -9 405 -11 285 -1 444 5 635 26 25
2 72 7 105 10 33 4 71 8 85 11 14 2 50 7 80 10 85 10 95 11 95 13 0 1 11 4 25
6 122 17 202 31 310 55 47 10 96 21 110 23 14 3 45 10 70 17 25 7 56 14 70 16
14 3 32 7 40 10 8 3 24 8 35 10 11 2 67 18 125 34 58 17 112 33 120 35 78 19
460 153 474 166 6 5 16 9 24 9 8 0 28 6 45 14 112 51 166 71 180 68 4 -1 7 2
7 7 0 5 30 21 67 36 36 14 76 33 87 41 11 8 28 14 37 14 9 0 21 6 27 13 6 6
33 21 61 32 28 11 51 23 51 27 0 4 9 8 20 8 11 0 20 5 20 10 0 6 9 10 20 10
11 0 20 3 20 8 0 4 15 13 33 21 27 12 104 54 242 133 17 9 41 23 55 30 14 7
31 18 38 25 8 7 17 11 22 8 4 -3 10 2 14 10 3 8 10 15 16 15 6 0 44 23 86 50
41 28 77 50 79 50 3 0 140 91 160 107 6 4 30 22 55 38 25 17 47 33 48 38 2 4
10 7 17 7 7 0 15 3 17 8 3 8 166 132 173 132 3 0 13 8 24 18 10 9 33 29 52 44
34 26 143 113 166 133 7 5 26 21 41 35 15 14 57 50 92 80 35 30 82 72 103 93
22 20 40 37 42 37 1 0 43 41 94 90 50 50 97 90 103 90 6 0 9 3 6 6 -7 7 48 64
62 64 5 0 10 5 10 10 0 6 17 28 38 49 85 86 248 265 309 340 15 19 35 42 43
51 8 8 44 51 79 95 35 44 74 94 88 110 13 17 32 41 41 54 9 13 25 32 35 43 9
10 17 21 17 24 0 4 12 21 28 39 15 18 59 78 97 135 39 56 78 111 88 121 9 11
17 21 17 24 0 3 36 59 79 124 44 66 77 122 73 125 -3 3 0 6 6 6 7 0 12 6 12
14 0 8 4 16 8 18 4 2 34 48 66 103 32 55 69 118 82 140 13 22 36 65 51 95 16
30 30 57 33 60 3 3 19 32 35 65 17 33 33 62 38 63 4 2 7 8 7 13 0 5 36 82 79
172 93 192 133 278 151 330 8 20 17 37 20 37 4 0 7 6 7 13 0 6 8 30 17 52 10
22 23 51 28 65 6 14 14 33 19 42 5 10 9 22 9 27 0 5 8 26 17 47 9 22 17 41 18
44 0 3 3 10 6 15 4 6 14 35 24 65 10 30 21 60 25 65 4 6 11 26 15 45 4 19 13
49 20 65 14 33 38 102 41 123 4 22 13 42 19 42 4 0 4 -4 1 -8z m-16914 -1020
c21 -19 48 -42 60 -51 13 -8 29 -21 36 -28 7 -7 26 -20 42 -30 17 -9 30 -21
30 -25 0 -4 6 -8 14 -8 8 0 16 -4 18 -8 2 -5 29 -24 61 -43 114 -67 127 -76
169 -110 64 -53 104 -94 150 -157 24 -31 45 -59 48 -62 3 -3 18 -23 34 -45 16
-22 34 -45 40 -50 6 -6 39 -40 74 -77 34 -36 62 -64 62 -61 0 4 8 -3 18 -14
21 -23 139 -114 181 -139 17 -10 31 -22 31 -27 0 -4 5 -5 10 -2 6 3 10 2 10
-3 0 -4 18 -18 40 -31 22 -12 40 -27 40 -33 0 -6 3 -9 6 -5 6 6 30 -11 71 -50
13 -13 26 -23 29 -23 3 0 33 -27 66 -60 34 -33 63 -60 66 -60 5 0 30 -27 81
-90 20 -25 39 -47 42 -50 28 -23 170 -283 181 -330 2 -8 5 -17 8 -20 10 -9 83
-254 93 -310 10 -51 39 -157 69 -245 80 -238 205 -418 388 -556 19 -15 45 -35
57 -45 12 -11 35 -29 51 -41 16 -12 41 -34 56 -48 15 -14 29 -25 32 -25 12 0
140 -138 154 -165 8 -17 17 -32 20 -35 10 -10 80 -157 80 -168 0 -5 4 -12 8
-14 4 -1 36 -59 71 -128 35 -69 74 -139 87 -157 13 -17 24 -35 24 -39 0 -15
141 -174 155 -174 3 0 16 -11 29 -25 13 -14 29 -25 35 -25 6 0 14 -7 17 -15 4
-8 12 -15 18 -15 14 0 186 -168 225 -220 14 -19 29 -38 34 -41 4 -3 9 -15 12
-27 2 -11 9 -30 15 -42 21 -39 55 -152 84 -283 l6 -27 -52 32 c-29 18 -55 36
-56 40 -2 5 -8 6 -13 2 -5 -3 -12 2 -15 10 -3 9 -11 16 -16 16 -6 0 -30 12
-53 28 -29 18 -45 36 -49 56 -10 48 -58 148 -97 201 -37 51 -95 108 -235 230
-125 109 -241 274 -344 490 -61 127 -64 132 -179 245 -64 63 -161 149 -215
190 -90 68 -227 194 -266 245 -146 192 -200 284 -259 440 -13 33 -29 74 -37
90 -7 17 -17 49 -23 70 -5 22 -17 67 -26 100 -9 33 -18 65 -19 70 -14 54 -20
72 -29 83 -5 6 -7 12 -4 12 17 0 -162 377 -215 455 -25 35 -105 133 -123 148
-11 10 -69 51 -130 92 -125 85 -204 144 -290 218 -72 62 -145 134 -145 143 0
3 -15 24 -33 47 -35 44 -97 140 -97 150 0 3 -18 33 -40 66 -73 110 -184 206
-352 306 -9 6 -42 24 -73 40 -32 17 -63 39 -70 50 -8 11 -27 63 -44 115 -44
135 -53 163 -59 180 -5 14 26 -12 120 -98z m2148 -184 c0 -5 4 -7 9 -4 5 3 14
-1 21 -9 7 -8 18 -15 25 -15 7 0 24 -9 38 -20 15 -12 29 -21 32 -20 8 1 98
-52 113 -67 7 -7 19 -13 27 -13 7 0 15 -3 17 -7 2 -5 21 -20 43 -35 72 -49
168 -138 298 -277 26 -28 45 -51 43 -51 -2 0 13 -17 34 -37 44 -45 105 -137
140 -213 14 -30 29 -58 35 -62 5 -4 6 -8 1 -8 -5 0 -3 -7 4 -15 7 -8 9 -15 5
-15 -4 0 -3 -6 3 -12 25 -32 98 -281 87 -298 -3 -6 -1 -10 6 -10 7 0 10 -3 6
-6 -7 -8 -107 37 -107 48 0 4 -5 8 -12 8 -29 0 -157 90 -224 158 -41 41 -74
78 -74 82 0 14 -90 104 -107 107 -56 9 -102 -30 -98 -83 3 -38 178 -309 208
-322 4 -2 7 -9 7 -16 0 -6 9 -18 20 -26 11 -8 20 -18 20 -22 0 -5 14 -24 31
-43 64 -70 64 -66 8 -126 -28 -30 -57 -66 -64 -80 -20 -37 -62 -44 -100 -17
-65 46 -164 144 -219 218 -22 30 -43 57 -46 60 -21 21 -119 220 -145 295 -17
48 -23 69 -44 165 -17 76 -19 83 -31 165 -6 44 -13 91 -16 105 -3 14 -7 48 -9
75 -2 28 -7 73 -9 100 -12 111 -15 155 -21 262 l-6 113 26 -12 c14 -6 25 -15
25 -20z m11944 -863 c-16 -25 -32 -45 -36 -45 -5 0 -8 -4 -8 -10 0 -5 -24 -36
-54 -67 -30 -32 -69 -76 -86 -98 -17 -22 -37 -43 -43 -47 -7 -4 -8 -8 -4 -8 5
0 -5 -19 -22 -42 -31 -43 -100 -195 -106 -233 -7 -40 -36 -148 -42 -159 -4 -6
-8 -17 -9 -23 -3 -21 -71 -136 -94 -160 -11 -13 -18 -23 -15 -23 16 0 -202
-223 -279 -286 -88 -70 -232 -207 -271 -256 -43 -55 -95 -128 -95 -133 0 -6
-11 -20 -37 -50 -7 -7 -13 -17 -13 -21 0 -3 -16 -29 -35 -55 -19 -27 -35 -52
-35 -55 0 -3 -6 -11 -12 -18 -7 -8 -20 -24 -28 -36 -145 -214 -360 -401 -520
-453 -58 -19 -162 -50 -277 -81 -82 -23 -211 -76 -238 -98 -5 -5 -63 -46 -127
-92 -104 -74 -189 -121 -237 -131 -9 -2 -28 -8 -44 -14 -55 -21 -158 -37 -222
-35 -201 9 -461 10 -493 2 -73 -19 -108 -31 -176 -60 -37 -16 -80 -32 -95 -34
-14 -3 -32 -7 -39 -9 -8 -3 -59 -8 -115 -11 -56 -3 -105 -8 -109 -10 -4 -3 -8
0 -8 6 0 7 -6 8 -17 2 -12 -6 -51 -1 -113 15 -52 13 -106 25 -120 27 -14 3
-65 14 -115 26 -49 12 -121 23 -158 25 -37 3 -72 7 -77 10 -4 3 -20 1 -35 -5
-19 -7 -24 -7 -19 1 4 8 1 8 -12 2 -39 -18 -168 -5 -253 26 -77 29 -80 35 -21
44 19 3 49 8 65 11 17 3 44 8 60 11 17 3 41 8 55 11 14 3 36 7 50 9 14 3 32 6
40 8 63 14 78 17 103 21 15 3 35 7 45 10 9 3 28 7 42 10 14 3 36 8 50 11 66
16 76 15 123 -15 26 -16 49 -30 51 -30 2 0 21 -8 42 -17 49 -21 46 -20 124
-38 113 -26 209 -15 378 44 83 29 193 60 237 66 144 21 253 26 327 13 82 -14
245 -11 325 6 104 22 194 70 323 171 63 49 123 97 134 107 45 41 186 99 326
134 277 69 359 128 517 369 36 55 86 132 112 170 70 107 244 274 426 409 257
192 359 309 455 526 62 139 85 184 131 252 46 67 49 88 14 88 -14 0 -25 -4
-25 -10 0 -6 -35 -7 -92 -3 -51 3 -110 5 -130 4 -21 0 -38 3 -38 7 0 16 107
106 147 124 24 10 44 17 46 16 2 -2 10 2 18 8 12 9 73 33 102 40 4 1 8 2 10 4
5 4 43 12 64 14 11 0 19 4 16 9 -2 4 3 8 11 8 9 1 19 2 24 4 41 11 222 101
252 124 35 28 37 18 4 -34z m-10701 -570 c100 -29 253 -146 355 -271 47 -58
121 -168 171 -254 24 -41 51 -83 59 -92 8 -10 12 -18 8 -18 -4 0 0 -7 8 -16 9
-8 16 -22 16 -30 0 -8 4 -14 9 -14 5 0 11 -8 15 -17 3 -10 9 -24 12 -31 3 -7
0 -10 -8 -8 -7 3 -38 7 -68 10 -143 15 -246 43 -362 100 -45 23 -130 83 -136
98 -2 4 -19 10 -38 14 -75 14 -128 -42 -98 -102 18 -35 74 -94 203 -213 20
-18 68 -64 108 -102 l71 -70 -34 -57 c-19 -31 -39 -74 -45 -94 -6 -24 -16 -38
-25 -38 -9 0 -55 18 -103 41 -47 22 -88 39 -90 39 -2 -1 -7 2 -10 7 -3 4 -22
17 -41 27 -147 79 -315 217 -412 336 -41 51 -124 200 -111 200 4 0 3 4 -3 8
-31 21 -42 264 -14 300 2 1 3 5 4 10 4 12 30 66 38 77 35 47 78 95 78 89 0 -5
7 2 16 14 8 12 19 20 24 17 5 -3 12 1 17 9 4 8 40 23 78 34 85 24 222 23 308
-3z m1044 -944 c66 -21 154 -62 218 -103 22 -13 47 -27 55 -31 18 -8 49 -28
66 -42 7 -5 27 -21 45 -35 18 -14 48 -40 67 -57 19 -18 38 -33 43 -33 5 0 9
-3 9 -7 0 -5 23 -33 51 -63 27 -30 54 -60 59 -67 10 -12 -5 -21 -50 -30 -13
-2 -27 -7 -30 -11 -9 -13 -68 -42 -84 -42 -9 0 -16 -4 -16 -9 0 -20 -141 -30
-238 -17 -55 7 -180 43 -197 56 -9 7 -49 19 -84 26 -22 4 -70 -34 -77 -61 -11
-46 41 -104 176 -195 12 -8 28 -20 35 -27 7 -7 15 -9 19 -6 3 4 6 1 6 -5 0 -7
6 -12 13 -12 7 0 23 -9 34 -19 12 -11 24 -17 27 -14 3 4 6 1 6 -6 0 -7 5 -9
10 -6 6 3 10 2 10 -3 0 -5 20 -17 45 -28 25 -10 45 -21 45 -24 0 -3 16 -12 35
-19 19 -7 35 -17 35 -22 0 -6 5 -7 12 -3 13 8 13 8 -49 -88 -24 -36 -43 -71
-43 -77 0 -6 -4 -11 -10 -11 -5 0 -9 -3 -8 -7 1 -5 -5 -21 -12 -38 -16 -36
-14 -30 -30 -87 -13 -45 -16 -47 -44 -42 -16 3 -34 8 -40 12 -6 3 -15 7 -21 8
-52 9 -408 181 -444 215 -11 11 -23 19 -26 19 -26 0 -205 173 -205 197 0 7 -4
13 -9 13 -13 0 -67 129 -81 193 -26 125 -5 291 50 397 58 110 204 205 350 225
25 4 47 8 49 10 10 11 174 -7 228 -24z m1054 -516 c65 -10 92 -17 128 -32 20
-9 38 -14 40 -13 2 1 7 -2 10 -7 3 -4 36 -23 74 -42 37 -18 67 -38 67 -42 0
-5 6 -9 13 -9 7 0 23 -9 35 -20 12 -11 24 -20 27 -20 4 0 12 -6 19 -12 7 -7
33 -29 57 -48 59 -47 264 -250 253 -250 -5 0 -3 -4 5 -9 10 -6 2 -16 -31 -39
-24 -17 -75 -64 -113 -106 -64 -69 -148 -142 -157 -136 -1 2 -14 -2 -27 -10
-30 -15 -104 -15 -188 1 -51 10 -67 10 -87 -1 -32 -17 -46 -56 -33 -93 11 -33
159 -133 285 -192 45 -22 82 -41 82 -43 0 -3 -27 -48 -59 -101 -69 -112 -93
-159 -114 -222 -16 -48 -31 -129 -36 -193 -1 -17 -7 -18 -58 -12 -32 4 -103
18 -158 32 -132 33 -130 32 -132 34 -2 2 -6 3 -10 5 -13 3 -46 16 -80 31 -18
8 -36 15 -40 15 -13 1 -67 33 -75 44 -4 6 -8 7 -8 2 0 -12 -177 112 -208 147
-9 10 -23 24 -30 30 -188 163 -241 416 -134 646 31 68 148 241 222 327 5 7 10
15 10 19 0 3 9 18 19 32 10 15 19 30 20 35 3 21 54 107 86 145 34 39 109 91
137 96 7 1 18 4 23 7 6 4 32 6 58 6 26 1 51 3 54 7 3 3 9 4 13 1 4 -2 22 -7
41 -10z m1221 -559 c15 -4 40 -11 55 -18 16 -6 33 -12 40 -14 14 -3 77 -46 81
-56 2 -5 8 -8 14 -8 18 0 122 -93 271 -244 l149 -149 -44 -20 c-58 -27 -141
-85 -208 -147 -30 -28 -89 -67 -130 -88 -72 -36 -78 -37 -175 -36 -55 1 -126
3 -157 5 -66 5 -87 -12 -88 -67 0 -46 25 -69 110 -104 298 -123 391 -156 438
-159 20 -2 15 -18 -58 -164 -39 -78 -73 -158 -77 -179 -3 -21 -9 -40 -12 -42
-12 -8 1 -214 14 -237 3 -4 -1 -9 -8 -11 -22 -7 -238 4 -300 16 -15 3 -55 10
-90 16 -174 31 -372 106 -444 168 -49 41 -77 69 -96 93 -32 41 -80 143 -83
174 -1 17 -3 30 -4 30 -2 0 -3 11 -4 25 -1 14 -4 30 -7 35 -12 21 -1 168 18
230 9 34 55 128 82 170 14 22 34 56 44 75 11 19 22 37 26 40 21 16 84 142 106
212 15 46 35 105 46 133 20 49 93 171 127 211 28 33 140 106 175 114 35 8 146
5 189 -4z m1017 -621 c9 -2 29 -6 44 -9 15 -3 54 -13 85 -22 31 -10 62 -18 67
-19 68 -15 390 -174 390 -193 0 -6 -11 -23 -25 -39 -14 -15 -47 -58 -73 -95
-67 -94 -109 -133 -180 -168 -61 -29 -220 -63 -256 -53 -28 7 -76 -38 -79 -75
-3 -26 3 -39 29 -63 17 -16 34 -28 36 -25 2 2 35 -7 72 -19 65 -22 91 -29 164
-40 17 -3 48 -8 67 -11 19 -3 57 -8 85 -11 27 -2 51 -5 52 -6 1 -2 -7 -29 -18
-62 -11 -33 -23 -71 -25 -84 -3 -14 -7 -28 -10 -33 -8 -12 -20 -153 -14 -168
1 -3 3 -24 5 -47 6 -59 23 -120 50 -175 13 -25 21 -49 18 -52 -4 -3 0 -6 7 -6
26 0 -4 -18 -40 -24 -19 -3 -44 -8 -55 -10 -134 -32 -229 -47 -320 -50 -187
-7 -375 32 -489 99 -39 23 -126 105 -112 105 7 0 -3 13 -34 47 -8 9 -13 17
-11 17 3 1 -10 33 -41 101 -5 11 -10 30 -11 43 0 12 -4 22 -8 22 -10 0 -26 93
-28 168 -2 68 19 148 43 164 6 4 8 8 4 8 -4 0 17 49 47 108 56 110 80 175 90
247 4 22 8 51 10 65 3 14 7 50 11 80 3 30 8 58 10 61 2 3 6 21 9 39 3 18 9 38
13 44 3 6 7 17 8 24 3 16 84 90 84 76 0 -3 6 -2 13 3 14 12 72 32 114 39 15 3
29 7 32 9 5 5 148 -3 170 -10z m5481 -4 c0 -15 -67 -75 -115 -102 -80 -45 -99
-74 -81 -127 18 -52 88 -58 165 -12 111 65 79 21 -59 -80 -41 -30 -83 -60 -95
-66 -11 -6 -36 -20 -55 -31 -93 -52 -220 -88 -310 -87 -77 1 -134 42 -143 102
-6 36 19 122 35 122 5 0 7 4 4 9 -8 13 74 84 137 119 46 26 174 81 202 87 5 1
21 7 35 12 25 11 105 28 215 49 16 3 31 6 32 8 6 5 33 3 33 -3z m-4325 -276
c33 -9 79 -21 103 -27 23 -5 42 -14 42 -19 0 -6 4 -8 9 -5 15 10 160 -55 249
-111 29 -18 58 -33 65 -33 6 0 -5 -11 -25 -25 -21 -14 -52 -46 -69 -73 -47
-68 -116 -152 -144 -174 -23 -18 -105 -52 -105 -43 0 3 -11 0 -24 -5 -13 -5
-44 -11 -67 -15 -110 -15 -129 -35 -120 -122 1 -16 40 -41 71 -47 14 -2 25 -5
25 -6 0 -1 16 -3 35 -4 19 -2 53 -6 75 -10 22 -3 76 -9 120 -12 43 -3 81 -7
84 -9 2 -3 6 -26 7 -52 3 -60 12 -104 29 -153 7 -21 11 -41 8 -44 -4 -3 -1 -6
5 -6 7 0 12 -6 12 -14 0 -19 57 -124 92 -168 16 -21 26 -38 22 -38 -5 0 2 -7
14 -16 31 -21 27 -39 -10 -51 -18 -6 -58 -21 -88 -32 -30 -11 -66 -23 -80 -25
-14 -2 -25 -5 -25 -7 0 -1 -11 -3 -25 -4 -14 -2 -41 -7 -60 -13 -19 -5 -45 -8
-57 -7 -13 1 -23 -1 -23 -5 0 -7 -241 -5 -280 2 -123 24 -212 72 -305 163 -65
63 -135 155 -119 155 4 0 1 6 -5 14 -17 20 -24 68 -24 166 0 73 6 102 41 207
49 145 64 197 75 255 3 15 9 33 13 39 5 8 3 9 -6 4 -9 -5 -11 -4 -6 3 8 14 11
29 20 97 4 28 9 57 11 65 2 8 6 26 9 40 7 41 23 73 47 99 24 26 112 69 156 77
15 3 29 6 30 8 9 9 147 -4 198 -19z m3334 -115 c-37 -46 -123 -120 -139 -120
-6 0 -9 -4 -6 -8 3 -4 -23 -22 -57 -40 -41 -20 -69 -42 -82 -64 -10 -18 -18
-35 -16 -38 1 -3 10 -18 19 -33 10 -17 29 -31 47 -35 36 -7 29 -9 98 23 31 14
63 25 71 25 9 0 16 5 16 10 0 6 6 10 13 10 13 0 169 61 177 70 3 3 18 11 33
18 24 10 32 9 52 -5 14 -10 25 -23 25 -29 0 -6 -30 -40 -67 -77 -102 -99 -133
-126 -183 -160 -25 -17 -51 -37 -58 -44 -8 -7 -18 -11 -23 -8 -5 4 -9 2 -9 -3
0 -10 -131 -72 -195 -92 -22 -7 -49 -16 -60 -19 -24 -8 -126 -6 -175 4 -78 16
-161 80 -195 151 -22 47 -25 128 -6 187 39 124 166 204 426 271 121 31 140 34
230 42 39 3 72 8 74 10 2 2 8 1 12 -2 5 -3 -5 -23 -22 -44z m-2229 -82 c65
-11 174 -43 240 -71 49 -20 74 -30 80 -32 59 -20 79 -45 54 -65 -8 -7 -14 -18
-14 -24 0 -13 -76 -87 -135 -131 -82 -61 -144 -86 -289 -116 -95 -19 -123 -37
-127 -79 -3 -34 8 -56 39 -77 23 -15 55 -18 217 -21 225 -4 197 -4 265 3 l55
6 30 -60 c17 -33 33 -61 38 -61 4 0 7 -4 7 -10 0 -10 20 -36 84 -107 21 -24
37 -45 35 -47 -50 -43 -362 -186 -377 -172 -3 3 -10 2 -16 -3 -11 -9 -32 -14
-121 -29 -88 -15 -236 -6 -297 17 -13 5 -27 9 -33 10 -25 3 -95 35 -95 42 0 5
-7 9 -16 9 -16 0 -94 75 -130 126 -20 28 -57 94 -59 104 0 3 -7 15 -14 28 -34
62 -53 187 -39 262 5 25 11 57 13 72 6 33 57 171 80 216 44 86 191 193 287
208 18 3 46 7 62 10 16 2 31 6 33 8 5 5 67 -2 143 -16z m1290 -22 c14 -2 26
-5 28 -6 3 -3 18 -7 32 -9 13 -1 -84 -119 -149 -180 -58 -56 -153 -118 -203
-133 -38 -11 -87 -51 -89 -72 -1 -6 -2 -18 -3 -26 -3 -25 27 -70 50 -76 12 -3
50 -3 85 -1 69 6 114 13 204 31 27 5 103 26 120 32 8 3 26 -14 46 -43 18 -26
41 -54 51 -61 10 -8 30 -25 43 -38 14 -14 25 -21 25 -17 0 9 20 -18 20 -28 0
-3 -17 -15 -38 -27 -21 -11 -48 -30 -61 -41 -13 -12 -30 -21 -37 -21 -7 0 -14
-3 -16 -7 -4 -11 -155 -83 -172 -83 -8 0 -17 -4 -20 -9 -5 -7 -36 -17 -86 -27
-8 -2 -31 -7 -50 -12 -30 -7 -170 -9 -177 -2 -2 1 -6 3 -10 4 -22 3 -99 31
-103 37 -3 3 -17 12 -31 20 -97 51 -220 222 -235 326 -7 43 -7 48 -1 83 13 75
20 100 30 100 6 0 8 3 4 6 -22 22 114 191 181 225 15 7 38 20 51 28 13 9 29
16 35 18 15 3 51 12 79 19 12 3 51 8 87 11 36 2 69 5 74 6 7 2 172 -17 236
-27z"/>
<path d="M8002 18803 c-51 -25 -69 -100 -39 -160 21 -40 100 -109 143 -125 19
-7 34 -15 34 -18 0 -3 8 -6 18 -7 33 -2 83 -12 92 -18 18 -11 70 51 70 84 0
34 -32 71 -64 72 -12 0 -37 6 -56 13 -31 11 -35 16 -32 44 2 17 -2 41 -9 54
-16 29 -60 68 -79 69 -8 0 -22 2 -31 4 -9 1 -30 -4 -47 -12z"/>
<path d="M13028 16754 c-34 -18 -47 -41 -42 -79 7 -61 89 -88 131 -42 63 67
-8 163 -89 121z"/>
<path d="M14072 16126 c-14 -7 -27 -26 -33 -49 -8 -31 -7 -41 8 -61 49 -66
144 -30 138 52 -4 53 -61 82 -113 58z"/>
<path d="M14914 15368 c-10 -15 -18 -35 -18 -43 1 -8 2 -23 3 -34 1 -20 56
-51 82 -48 30 5 66 36 71 61 8 41 -19 85 -56 90 -50 8 -62 4 -82 -26z"/>
<path d="M15710 14563 c-44 -17 -53 -87 -17 -127 52 -60 136 -25 137 57 0 10
-13 32 -29 48 -28 28 -57 35 -91 22z"/>
<path d="M16371 13582 c-31 -25 -33 -84 -4 -113 50 -50 142 -4 129 65 -8 40
-25 56 -67 62 -24 3 -41 -1 -58 -14z"/>
<path d="M16809 12542 c-41 -37 -43 -86 -5 -119 21 -18 36 -23 59 -19 38 6 56
24 66 68 10 42 -12 75 -59 88 -26 8 -35 5 -61 -18z"/>
<path d="M17133 11473 c-27 -5 -53 -59 -46 -96 7 -35 58 -63 98 -53 31 8 59
63 49 100 -5 20 -61 60 -76 55 -1 -1 -13 -4 -25 -6z"/>
<path d="M17227 10559 c-11 -6 -25 -26 -33 -45 -13 -30 -12 -37 1 -58 36 -55
108 -53 137 4 15 29 15 36 2 61 -23 46 -67 61 -107 38z"/>
<path d="M16999 8991 c-24 -7 -49 -43 -49 -68 0 -35 15 -59 47 -71 36 -15 57
-11 86 16 55 52 -10 148 -84 123z"/>
<path d="M12100 13781 c-35 -16 -67 -60 -73 -99 -2 -12 -6 -25 -10 -28 -4 -4
-7 -17 -7 -28 0 -11 -12 -52 -27 -90 -50 -127 -189 -243 -338 -282 -197 -53
-375 -31 -685 83 -52 19 -104 39 -115 44 -21 9 -76 31 -85 34 -3 1 -43 19 -90
41 -278 132 -521 188 -805 186 -150 -2 -253 -12 -365 -38 -14 -3 -32 -7 -40
-8 -8 -2 -35 -9 -60 -16 -25 -7 -52 -14 -60 -15 -8 -2 -16 -4 -17 -5 -2 -2 -6
-3 -10 -5 -5 -1 -17 -5 -28 -9 -73 -28 -95 -35 -95 -31 0 16 -359 -191 -390
-225 -3 -3 -25 -21 -49 -40 -25 -19 -54 -44 -66 -55 -11 -11 -44 -42 -73 -68
-29 -26 -52 -50 -52 -52 0 -2 -15 -19 -33 -37 -29 -30 -124 -149 -155 -194
-48 -73 -86 -133 -99 -159 -9 -16 -19 -32 -22 -35 -10 -8 -96 -197 -126 -275
-21 -57 -76 -251 -90 -315 -12 -64 -26 -164 -28 -210 -2 -30 -5 -59 -8 -65 -9
-18 1 -284 15 -370 3 -20 16 -96 21 -127 31 -164 139 -426 236 -571 83 -123
222 -272 334 -358 28 -21 75 -59 105 -83 30 -25 61 -45 68 -46 6 0 12 -3 12
-8 0 -4 17 -16 37 -27 20 -11 41 -24 47 -30 6 -5 33 -21 59 -35 26 -13 47 -28
47 -32 0 -5 4 -8 9 -8 4 0 62 -32 127 -71 65 -39 152 -89 194 -112 41 -23 77
-45 78 -49 2 -4 8 -8 14 -8 6 0 47 -22 92 -48 44 -27 130 -77 189 -113 59 -35
116 -68 125 -74 52 -30 285 -179 475 -302 53 -34 102 -63 107 -63 6 0 10 -4
10 -9 0 -5 14 -14 30 -21 17 -7 30 -16 30 -21 0 -5 5 -9 10 -9 6 0 38 -18 71
-40 33 -22 62 -40 65 -40 9 0 279 -183 282 -192 2 -4 9 -8 16 -8 6 0 18 -9 26
-20 8 -11 20 -20 28 -20 11 0 13 -68 10 -380 -2 -209 -5 -380 -8 -380 -5 0 -4
-58 0 -70 1 -3 1 -9 0 -15 -1 -5 -4 -163 -6 -350 -4 -316 -10 -744 -14 -1030
l-2 -121 -82 -17 c-230 -50 -737 -57 -864 -12 -7 2 -34 7 -60 11 -26 3 -81 14
-122 25 -41 11 -82 22 -90 24 -8 2 -15 4 -15 5 0 1 -9 3 -20 5 -12 2 -45 15
-75 28 -30 14 -59 25 -65 27 -5 1 -29 10 -52 21 -23 10 -47 19 -52 19 -6 0
-11 5 -11 12 0 6 -3 9 -6 6 -8 -9 -140 58 -230 117 -82 53 -90 59 -173 130
-63 54 -270 263 -301 304 -14 19 -33 43 -44 55 -54 62 -216 312 -213 327 1 4
-5 15 -14 25 -20 23 -159 311 -159 330 0 3 -12 31 -26 62 -22 47 -78 194 -82
212 0 3 -3 12 -6 20 -26 76 -57 203 -70 284 -12 72 -43 100 -100 89 -60 -12
-59 -4 -62 -571 -2 -284 -3 -517 -4 -517 0 0 -3 -294 -5 -653 -5 -693 -7 -664
41 -690 39 -21 86 2 104 50 23 64 45 108 53 108 4 0 7 6 7 13 0 7 9 23 20 35
12 12 18 22 14 22 -6 0 73 78 116 114 29 25 86 54 135 71 83 28 125 36 199 39
79 4 246 -21 344 -50 7 -2 13 -4 15 -4 1 0 61 -21 132 -45 72 -25 137 -47 145
-50 8 -2 53 -18 100 -35 46 -17 147 -45 223 -61 76 -16 142 -31 147 -34 9 -5
40 -11 125 -20 28 -4 66 -8 85 -11 19 -3 51 -7 70 -9 19 -1 67 -7 105 -12 77
-9 484 -9 555 0 25 4 70 9 100 12 30 3 75 8 100 11 67 8 265 59 366 94 49 17
94 32 99 34 6 1 27 10 49 19 21 9 40 17 42 17 2 0 38 16 79 35 41 19 78 34 82
34 3 0 9 3 12 8 3 4 15 13 26 19 156 85 252 148 367 240 83 67 241 222 288
283 14 18 33 42 43 54 10 12 26 34 35 50 9 15 20 27 24 27 4 0 8 4 8 10 0 8
32 61 57 95 5 6 19 33 33 60 14 28 28 52 33 53 4 2 7 9 7 16 0 6 9 29 20 51
11 22 20 45 20 52 0 7 4 13 10 13 5 0 9 3 8 8 -1 4 10 43 24 87 14 44 30 96
34 115 4 19 8 37 9 40 31 129 39 208 38 375 -1 181 -14 279 -58 440 -41 151
-149 399 -204 468 -8 9 -11 17 -7 17 4 0 1 7 -6 15 -27 30 -38 44 -38 50 0 3
-32 48 -71 100 -84 113 -263 297 -375 386 -44 35 -94 74 -110 87 -16 13 -38
28 -49 33 -11 6 -36 20 -57 32 -119 72 -204 123 -213 127 -20 10 -310 185
-315 190 -5 5 -24 16 -99 57 -25 14 -53 32 -62 39 -8 8 -18 14 -22 14 -9 0
-112 64 -115 73 -2 4 -8 7 -13 7 -5 0 -172 98 -372 218 -199 119 -369 221
-377 225 -8 4 -32 18 -52 30 -20 12 -85 51 -145 86 -59 36 -109 69 -111 73 -2
4 -8 8 -13 8 -22 0 -249 149 -250 164 -2 20 -1 78 5 276 3 107 8 274 11 370 3
96 7 238 10 315 2 77 7 232 11 345 3 113 7 257 10 320 2 63 4 124 3 135 0 11
0 25 0 30 2 27 10 302 12 393 2 88 5 105 21 113 10 5 18 8 18 5 0 -3 14 -1 30
4 21 6 30 5 30 -3 0 -9 2 -9 8 0 5 9 52 11 172 8 91 -2 179 -5 195 -8 70 -12
104 -18 170 -33 39 -9 75 -17 80 -19 6 -1 12 -3 15 -3 10 -2 146 -53 180 -68
134 -60 370 -197 370 -215 0 -5 5 -9 11 -9 40 0 339 -284 463 -440 37 -47 74
-93 82 -103 20 -25 174 -255 174 -260 0 -3 18 -35 40 -71 64 -106 196 -384
247 -521 17 -44 34 -89 38 -100 5 -11 9 -23 10 -27 2 -5 4 -10 5 -13 1 -3 3
-8 4 -12 1 -5 9 -30 19 -58 9 -27 17 -53 18 -57 0 -4 9 -31 20 -60 10 -29 19
-60 19 -69 0 -23 30 -47 67 -53 24 -5 38 0 59 17 l27 24 4 1205 c3 1188 3
1206 -17 1230 -26 34 -49 39 -90 19z m-2636 -383 c-5 -8 -11 -190 -18 -509 -1
-69 -6 -131 -11 -139 -6 -9 -4 -11 5 -5 9 5 11 4 6 -4 -4 -7 -9 -83 -12 -169
-4 -201 -12 -462 -19 -672 -4 -91 -7 -220 -8 -287 -1 -68 -5 -123 -9 -123 -4
0 -3 -12 2 -26 6 -15 7 -32 3 -38 -5 -6 -8 -41 -8 -78 l1 -68 -25 23 c-68 62
-163 159 -212 217 -30 36 -57 67 -60 70 -14 12 -89 130 -89 139 0 6 -4 11 -8
11 -8 0 -102 180 -102 194 0 5 -6 22 -14 39 -23 52 -32 78 -40 112 -2 11 -5
21 -5 23 -1 1 -1 4 -2 7 0 2 -5 19 -10 37 -18 63 -30 160 -31 258 -1 64 9 187
15 198 3 4 8 23 11 42 22 143 119 334 240 475 64 76 168 175 182 175 3 0 11 6
19 13 30 28 56 47 65 47 6 0 10 3 10 8 0 4 16 16 35 26 19 11 35 23 35 27 0 4
8 9 18 12 19 4 45 -21 36 -35z m1711 -4703 c22 -19 64 -57 94 -83 86 -75 174
-166 222 -229 24 -32 47 -59 52 -61 4 -2 7 -7 7 -12 0 -4 18 -38 40 -74 22
-36 40 -70 40 -75 0 -5 4 -11 8 -13 20 -8 84 -200 99 -301 16 -97 3 -349 -19
-390 -5 -10 -7 -21 -5 -24 3 -3 -1 -26 -9 -51 -8 -26 -17 -54 -19 -62 -15 -61
-102 -252 -117 -258 -4 -2 -8 -9 -8 -15 0 -16 -82 -135 -123 -179 -19 -21 -32
-38 -30 -38 10 0 -91 -92 -153 -142 -34 -26 -67 -48 -73 -48 -6 0 -11 -4 -11
-8 0 -7 -62 -42 -74 -42 -7 0 0 376 7 388 5 6 4 12 0 12 -5 0 -7 26 -6 58 3
60 12 664 17 1093 1 140 6 261 10 267 4 7 3 12 -2 12 -8 0 -6 82 3 108 2 6 0
12 -6 12 -6 0 -6 7 -2 18 10 21 10 53 0 70 -5 6 -4 12 0 12 5 0 8 20 7 45 -1
25 2 45 5 45 3 0 24 -16 46 -35z"/>
<path d="M3684 7295 c-47 -19 -60 -80 -26 -119 57 -63 148 -21 135 62 -7 49
-62 77 -109 57z"/>
<path d="M4440 5293 c-56 -16 -85 -57 -69 -99 28 -76 134 -75 153 2 12 48 -40
109 -84 97z"/>
<path d="M5363 4192 c-32 -5 -63 -49 -63 -88 0 -37 37 -74 75 -74 53 0 95 67
73 115 -12 28 -57 52 -85 47z"/>
<path d="M6262 3153 c-25 -19 -32 -32 -32 -59 0 -76 86 -106 135 -48 63 73
-28 167 -103 107z"/>
<path d="M7562 2231 c-40 -18 -55 -63 -36 -103 17 -34 27 -40 69 -41 32 -1 72
28 76 55 1 4 2 14 3 21 1 6 -2 21 -8 32 -6 11 -10 23 -9 26 1 3 -13 10 -30 16
-25 7 -40 6 -65 -6z"/>
<path d="M15467 3500 c-14 -11 -27 -30 -29 -43 -13 -74 95 -125 135 -64 27 43
27 65 -3 97 -33 35 -67 38 -103 10z"/>
<path d="M10433 3061 c-12 -10 -25 -34 -28 -54 -6 -30 -3 -40 19 -61 15 -16
36 -26 54 -26 28 0 71 30 74 53 5 43 2 67 -10 72 -7 3 -11 9 -8 14 3 5 -8 11
-25 15 -45 9 -51 8 -76 -13z"/>
<path d="M14263 2995 c-41 -17 -58 -66 -38 -105 20 -39 63 -52 104 -32 95 46
31 178 -66 137z"/>
<path d="M11461 2849 c-30 -18 -36 -35 -31 -84 5 -55 79 -79 124 -40 23 20 27
31 25 62 -6 63 -65 95 -118 62z"/>
<path d="M13421 2771 c-26 -37 -26 -61 0 -95 45 -57 141 -16 133 57 -8 67 -95
92 -133 38z"/>
<path d="M12457 2723 c-35 -9 -55 -38 -52 -78 4 -70 81 -98 128 -46 31 35 28
78 -8 109 -26 22 -34 24 -68 15z"/>
</g>
</svg>
